<svg xmlns="http://www.w3.org/2000/svg" x="0px" y="0px"
width="100" height="100"
viewBox="0 0 226 226"
style=" fill:#000000;"><g fill="none" fill-rule="nonzero" stroke="none" stroke-width="1" stroke-linecap="butt" stroke-linejoin="miter" stroke-miterlimit="10" stroke-dasharray="" stroke-dashoffset="0" font-family="none" font-weight="none" font-size="none" text-anchor="none" style="mix-blend-mode: normal"><path d="M0,226v-226h226v226z" fill="none"></path><g fill="#28b351"><path d="M112.83447,0c-38.85754,0 -70.45947,31.60193 -70.45947,70.45947c0,25.25671 15.21472,48.04431 31.32605,72.16992c15.73889,23.58765 32.01575,47.97534 35.61597,76.74951c0.2207,1.76563 1.72425,3.08984 3.50366,3.08984c1.77942,0 3.28296,-1.32422 3.50366,-3.08984c3.61402,-28.76038 19.89087,-53.14807 35.62976,-76.73572c16.11133,-24.12561 31.33984,-46.927 31.33984,-72.18371c0,-38.85754 -31.61572,-70.45947 -70.45947,-70.45947zM112.83447,7.0625c34.95386,0 63.39697,28.44312 63.39697,63.39697c0,23.11865 -14.64917,45.05103 -30.13977,68.26623c-13.11804,19.62879 -26.58093,39.80933 -33.271,62.90039c-6.69006,-23.10486 -20.15295,-43.27161 -33.2572,-62.91418c-15.4906,-23.20141 -30.12598,-45.13379 -30.12598,-68.25244c0,-34.95386 28.42932,-63.39697 63.39697,-63.39697zM111.93787,21.20129c-26.67749,0.56555 -48.37537,22.73242 -48.37537,49.42371c0,12.5249 4.71753,23.9325 12.41455,32.65027c0.2345,0.38623 0.53796,0.71729 0.89661,0.99316c9.03504,9.68335 21.86341,15.79407 36.12634,15.79407c14.33191,0 27.21545,-6.16589 36.25049,-15.93201c0.2207,-0.17932 0.38623,-0.38623 0.55176,-0.60693c7.83496,-8.74536 12.63525,-20.2633 12.63525,-32.89856c0,-13.47668 -5.32446,-26.07055 -14.99402,-35.46423c-1.39319,-1.3518 -3.6416,-1.32422 -4.99341,0.06897c-1.3656,1.40698 -1.32422,3.6416 0.06897,4.99341c8.29016,8.05566 12.85596,18.85632 12.85596,30.40186c0,9.03504 -2.86914,17.39416 -7.69702,24.27734c-3.8761,-6.44177 -9.76611,-11.47656 -16.70447,-14.38709c2.12427,-3.93127 3.36572,-8.33154 3.36572,-12.49731v-5.39343c0,-11.75244 -9.573,-21.31164 -21.33923,-21.31164c-11.76623,0 -21.33923,9.5592 -21.33923,21.31164v5.39343c0,4.16577 1.24146,8.56604 3.36572,12.49731c-6.93835,2.91052 -12.82837,7.93152 -16.70447,14.38709c-4.82788,-6.88318 -7.69702,-15.24231 -7.69702,-24.27734c0,-22.88416 18.59424,-41.87842 41.4508,-42.36121c1.95874,-0.04138 3.50366,-1.65527 3.46228,-3.60022c-0.04138,-1.93115 -1.61389,-3.46228 -3.53125,-3.46228zM124.53174,22.7876c-1.3656,0.19312 -2.55188,1.17248 -2.93811,2.59326c-0.51038,1.87598 0.60693,3.82092 2.48291,4.3313c2.97949,0.80005 5.86243,1.94495 8.57983,3.36572c0.52417,0.27588 1.08972,0.40002 1.64148,0.40002c1.26904,0 2.4967,-0.6897 3.13123,-1.88977c0.9104,-1.72425 0.2345,-3.8623 -1.47595,-4.77271c-3.1864,-1.65527 -6.55212,-2.97949 -10.0282,-3.91748c-0.46899,-0.13794 -0.95178,-0.16553 -1.39319,-0.11035zM17.73902,26.51196c-1.37939,0.02759 -2.67603,0.86902 -3.22778,2.22082c-0.71729,1.80701 0.15173,3.8623 1.95874,4.59338l13.10425,5.29688c0.42761,0.17932 0.86902,0.26209 1.31043,0.26209c1.39319,0 2.7312,-0.84143 3.28296,-2.20703c0.73108,-1.8208 -0.15173,-3.8761 -1.94495,-4.60718l-13.10425,-5.28308c-0.4552,-0.19312 -0.9242,-0.27588 -1.37939,-0.27588zM208.26099,26.51196c-0.4552,0 -0.9242,0.08276 -1.37939,0.27588l-13.10425,5.28308c-1.80701,0.73108 -2.67602,2.78638 -1.94495,4.60718c0.55176,1.3656 1.88977,2.20703 3.28296,2.20703c0.44141,0 0.88281,-0.08277 1.31043,-0.26209l13.10425,-5.29687c1.807,-0.73108 2.67602,-2.78638 1.95874,-4.59338c-0.55176,-1.35181 -1.84839,-2.19324 -3.22778,-2.22082zM113,48.37537c7.87634,0 14.27673,6.3866 14.27673,14.24914v5.39343c0,8.01428 -6.57971,17.79419 -14.27673,17.79419c-7.69702,0 -14.27673,-9.77991 -14.27673,-17.79419v-5.39343c0,-7.86255 6.40039,-14.24914 14.27673,-14.24914zM3.53125,63.5625c-1.94495,0 -3.53125,1.57251 -3.53125,3.53125c0,1.95874 1.5863,3.53125 3.53125,3.53125h21.1875c1.94495,0 3.53125,-1.57251 3.53125,-3.53125c0,-1.95874 -1.5863,-3.53125 -3.53125,-3.53125zM201.28125,63.5625c-1.94495,0 -3.53125,1.57251 -3.53125,3.53125c0,1.95874 1.5863,3.53125 3.53125,3.53125h21.1875c1.94495,0 3.53125,-1.57251 3.53125,-3.53125c0,-1.95874 -1.5863,-3.53125 -3.53125,-3.53125zM99.37158,86.52942c3.65539,3.82093 8.38672,6.34521 13.62842,6.34521c5.2417,0 9.95923,-2.53809 13.62842,-6.34521c6.99353,2.49671 12.95252,7.60046 16.1665,14.18018c-7.66943,7.58667 -18.19421,12.29041 -29.79492,12.29041c-11.6145,0 -22.13928,-4.70373 -29.79492,-12.29041c3.21399,-6.5935 9.15918,-11.68347 16.1665,-14.18018zM195.04639,95.30237c-1.3656,0.02759 -2.66223,0.85523 -3.21399,2.20703c-0.73108,1.8208 0.15173,3.8761 1.94495,4.60718l13.10425,5.29688c0.42761,0.16553 0.88281,0.24829 1.32422,0.24829c1.39319,0 2.71741,-0.82764 3.28296,-2.20703c0.71729,-1.807 -0.15173,-3.8623 -1.95874,-4.59338l-13.10425,-5.29687c-0.44141,-0.17932 -0.9104,-0.27588 -1.37939,-0.26209zM30.95361,95.30237c-0.46899,0 -0.93799,0.08277 -1.37939,0.26209l-13.10425,5.29688c-1.80701,0.73108 -2.67603,2.78638 -1.95874,4.59338c0.56555,1.37939 1.88977,2.20703 3.28296,2.20703c0.44141,0 0.89661,-0.08276 1.32422,-0.24829l13.10425,-5.29687c1.80701,-0.73108 2.67603,-2.78638 1.94495,-4.60718c-0.55176,-1.3518 -1.84839,-2.17944 -3.21399,-2.20703z"></path></g></g></svg>