<svg xmlns="http://www.w3.org/2000/svg" x="0px" y="0px"
width="80" height="80"
viewBox="0 0 226 226"
style=" fill:#000000;"><g fill="none" fill-rule="nonzero" stroke="none" stroke-width="1" stroke-linecap="butt" stroke-linejoin="miter" stroke-miterlimit="10" stroke-dasharray="" stroke-dashoffset="0" font-family="none" font-weight="none" font-size="none" text-anchor="none" style="mix-blend-mode: normal"><path d="M0,226v-226h226v226z" fill="none"></path><g fill="#28b351"><path d="M31.075,36.725c-6.23195,0 -11.3,5.06805 -11.3,11.3v113.73384c1.7063,-1.19215 3.60752,-2.11831 5.65,-2.72568v-91.23315v-19.775c0,-3.11597 2.53403,-5.65 5.65,-5.65h163.85c3.11597,0 5.65,2.53403 5.65,5.65v19.775v115.825h-150.55815c-0.60737,2.04247 -1.53353,3.9437 -2.72568,5.65h158.93384v-141.25c0,-6.23195 -5.06805,-11.3 -11.3,-11.3zM200.575,67.8c0,-1.5602 -1.2648,-2.825 -2.825,-2.825c-1.5602,0 -2.825,1.2648 -2.825,2.825c0,1.5602 1.2648,2.825 2.825,2.825c1.5602,0 2.825,-1.2648 2.825,-2.825zM25.425,67.8c0,1.5602 1.2648,2.825 2.825,2.825c1.5602,0 2.825,-1.2648 2.825,-2.825c0,-1.5602 -1.2648,-2.825 -2.825,-2.825c-1.5602,0 -2.825,1.2648 -2.825,2.825zM36.725,48.025c-3.12041,0 -5.65,2.52959 -5.65,5.65c0,3.12041 2.52959,5.65 5.65,5.65c3.12041,0 5.65,-2.52959 5.65,-5.65c0,-3.12041 -2.52959,-5.65 -5.65,-5.65zM53.675,48.025c-3.12041,0 -5.65,2.52959 -5.65,5.65c0,3.12041 2.52959,5.65 5.65,5.65c3.12041,0 5.65,-2.52959 5.65,-5.65c0,-3.12041 -2.52959,-5.65 -5.65,-5.65zM70.625,48.025c-3.12041,0 -5.65,2.52959 -5.65,5.65c0,3.12041 2.52959,5.65 5.65,5.65c3.12041,0 5.65,-2.52959 5.65,-5.65c0,-3.12041 -2.52959,-5.65 -5.65,-5.65zM39.55,64.975c-1.5602,0 -2.825,1.2648 -2.825,2.825c0,1.5602 1.2648,2.825 2.825,2.825c1.5602,0 2.825,-1.2648 2.825,-2.825c0,-1.5602 -1.2648,-2.825 -2.825,-2.825zM50.85,64.975c-1.5602,0 -2.825,1.2648 -2.825,2.825c0,1.5602 1.2648,2.825 2.825,2.825c1.5602,0 2.825,-1.2648 2.825,-2.825c0,-1.5602 -1.2648,-2.825 -2.825,-2.825zM62.15,64.975c-1.5602,0 -2.825,1.2648 -2.825,2.825c0,1.5602 1.2648,2.825 2.825,2.825c1.5602,0 2.825,-1.2648 2.825,-2.825c0,-1.5602 -1.2648,-2.825 -2.825,-2.825zM73.45,64.975c-1.5602,0 -2.825,1.2648 -2.825,2.825c0,1.5602 1.2648,2.825 2.825,2.825c1.5602,0 2.825,-1.2648 2.825,-2.825c0,-1.5602 -1.2648,-2.825 -2.825,-2.825zM84.75,64.975c-1.5602,0 -2.825,1.2648 -2.825,2.825c0,1.5602 1.2648,2.825 2.825,2.825c1.5602,0 2.825,-1.2648 2.825,-2.825c0,-1.5602 -1.2648,-2.825 -2.825,-2.825zM96.05,64.975c-1.5602,0 -2.825,1.2648 -2.825,2.825c0,1.5602 1.2648,2.825 2.825,2.825c1.5602,0 2.825,-1.2648 2.825,-2.825c0,-1.5602 -1.2648,-2.825 -2.825,-2.825zM107.35,64.975c-1.5602,0 -2.825,1.2648 -2.825,2.825c0,1.5602 1.2648,2.825 2.825,2.825c1.5602,0 2.825,-1.2648 2.825,-2.825c0,-1.5602 -1.2648,-2.825 -2.825,-2.825zM118.65,64.975c-1.5602,0 -2.825,1.2648 -2.825,2.825c0,1.5602 1.2648,2.825 2.825,2.825c1.5602,0 2.825,-1.2648 2.825,-2.825c0,-1.5602 -1.2648,-2.825 -2.825,-2.825zM129.95,64.975c-1.5602,0 -2.825,1.2648 -2.825,2.825c0,1.5602 1.2648,2.825 2.825,2.825c1.5602,0 2.825,-1.2648 2.825,-2.825c0,-1.5602 -1.2648,-2.825 -2.825,-2.825zM141.25,64.975c-1.5602,0 -2.825,1.2648 -2.825,2.825c0,1.5602 1.2648,2.825 2.825,2.825c1.5602,0 2.825,-1.2648 2.825,-2.825c0,-1.5602 -1.2648,-2.825 -2.825,-2.825zM152.55,64.975c-1.5602,0 -2.825,1.2648 -2.825,2.825c0,1.5602 1.2648,2.825 2.825,2.825c1.5602,0 2.825,-1.2648 2.825,-2.825c0,-1.5602 -1.2648,-2.825 -2.825,-2.825zM163.85,64.975c-1.5602,0 -2.825,1.2648 -2.825,2.825c0,1.5602 1.2648,2.825 2.825,2.825c1.5602,0 2.825,-1.2648 2.825,-2.825c0,-1.5602 -1.2648,-2.825 -2.825,-2.825zM175.15,64.975c-1.5602,0 -2.825,1.2648 -2.825,2.825c0,1.5602 1.2648,2.825 2.825,2.825c1.5602,0 2.825,-1.2648 2.825,-2.825c0,-1.5602 -1.2648,-2.825 -2.825,-2.825zM186.45,64.975c-1.5602,0 -2.825,1.2648 -2.825,2.825c0,1.5602 1.2648,2.825 2.825,2.825c1.5602,0 2.825,-1.2648 2.825,-2.825c0,-1.5602 -1.2648,-2.825 -2.825,-2.825zM166.675,87.575c-6.20736,0 -11.3,5.09264 -11.3,11.3c0,2.08343 0.60861,4.01779 1.60561,5.69966l-38.28096,38.28096c-1.68187,-0.997 -3.61623,-1.60561 -5.69966,-1.60561c-2.08343,0 -4.01779,0.60861 -5.69966,1.60561l-12.85596,-12.85596c0.997,-1.68187 1.60561,-3.61623 1.60561,-5.69966c0,-6.20736 -5.09264,-11.3 -11.3,-11.3c-6.20736,0 -11.3,5.09264 -11.3,11.3c0,2.08343 0.60861,4.01779 1.60561,5.69966l-38.28096,38.28096c-1.68187,-0.997 -3.61623,-1.60561 -5.69966,-1.60561c-6.20736,0 -11.3,5.09264 -11.3,11.3c0,6.20736 5.09264,11.3 11.3,11.3c6.20736,0 11.3,-5.09264 11.3,-11.3c0,-2.08343 -0.60861,-4.01779 -1.60561,-5.69966l38.28096,-38.28096c1.68187,0.997 3.61623,1.60561 5.69966,1.60561c2.08343,0 4.01779,-0.60861 5.69966,-1.60561l12.85596,12.85596c-0.997,1.68187 -1.60561,3.61623 -1.60561,5.69966c0,6.20736 5.09264,11.3 11.3,11.3c6.20736,0 11.3,-5.09264 11.3,-11.3c0,-2.08343 -0.60861,-4.01779 -1.60561,-5.69966l38.28096,-38.28096c1.68187,0.997 3.61623,1.60561 5.69966,1.60561c6.20736,0 11.3,-5.09264 11.3,-11.3c0,-6.20736 -5.09264,-11.3 -11.3,-11.3zM166.675,93.225c3.15387,0 5.65,2.49613 5.65,5.65c0,3.15387 -2.49613,5.65 -5.65,5.65c-3.15387,0 -5.65,-2.49613 -5.65,-5.65c0,-3.15387 2.49613,-5.65 5.65,-5.65zM84.75,118.65c3.15387,0 5.65,2.49613 5.65,5.65c0,3.15387 -2.49613,5.65 -5.65,5.65c-3.15387,0 -5.65,-2.49613 -5.65,-5.65c0,-3.15387 2.49613,-5.65 5.65,-5.65zM113,146.9c3.15387,0 5.65,2.49613 5.65,5.65c0,3.15387 -2.49613,5.65 -5.65,5.65c-3.15387,0 -5.65,-2.49613 -5.65,-5.65c0,-3.15387 2.49613,-5.65 5.65,-5.65zM31.075,172.325c3.15387,0 5.65,2.49613 5.65,5.65c0,3.15387 -2.49613,5.65 -5.65,5.65c-3.15387,0 -5.65,-2.49613 -5.65,-5.65c0,-3.15387 2.49613,-5.65 5.65,-5.65z"></path></g></g></svg>