<svg xmlns="http://www.w3.org/2000/svg" x="0px" y="0px"
width="50" height="50"
viewBox="0 0 226 226"
style=" fill:#000000;"><g fill="none" fill-rule="nonzero" stroke="none" stroke-width="1" stroke-linecap="butt" stroke-linejoin="miter" stroke-miterlimit="10" stroke-dasharray="" stroke-dashoffset="0" font-family="none" font-weight="none" font-size="none" text-anchor="none" style="mix-blend-mode: normal"><path d="M0,226v-226h226v226z" fill="none"></path><g fill="#28b351"><path d="M108.48,9.04c-7.43328,0 -13.56,6.12672 -13.56,13.56c0,5.87953 3.84906,10.87625 9.11062,12.74781c-0.05297,0.26484 -0.07062,0.52969 -0.07062,0.81219v13.56c0,0.2825 0.01766,0.54734 0.07062,0.82984c-4.44937,1.57141 -7.89234,5.3675 -8.84578,10.06406l-14.83125,2.11875c-2.03047,-4.96141 -6.90359,-8.49266 -12.55359,-8.49266c-7.43328,0 -13.56,6.12672 -13.56,13.56c0,3.90203 1.71266,7.39797 4.37875,9.8875l-3.86672,30.84547c-0.15891,0 -0.33547,-0.05297 -0.51203,-0.05297c-7.43328,0 -13.56,6.12672 -13.56,13.56c0,3.44297 1.35953,6.56813 3.49594,8.96937l-16.98531,23.53578c-1.44781,-0.52969 -2.98391,-0.86516 -4.59062,-0.86516c-7.43328,0 -13.56,6.12672 -13.56,13.56c0,7.43328 6.12672,13.56 13.56,13.56c7.43328,0 13.56,-6.12672 13.56,-13.56c0,-2.5425 -0.75922,-4.89078 -1.9775,-6.92125l18.00937,-24.93063c0.67094,0.10594 1.34188,0.21188 2.04812,0.21188c7.43328,0 13.56,-6.12672 13.56,-13.56c0,-3.90203 -1.71266,-7.39797 -4.37875,-9.8875l3.86672,-30.84547c0.15891,0 0.33547,0.05297 0.51203,0.05297c6.02078,0 11.14109,-4.06094 12.87141,-9.53437l15.87297,-2.27766c1.60672,3.00156 4.25516,5.33219 7.48625,6.46219c-0.05297,0.2825 -0.07062,0.54734 -0.07062,0.82984v14.4075c-5.22625,1.88922 -9.04,6.86828 -9.04,12.7125c0,5.87953 3.84906,10.87625 9.11062,12.73016c-0.05297,0.2825 -0.07062,0.54734 -0.07062,0.82984v14.4075c-5.22625,1.88922 -9.04,6.86828 -9.04,12.7125c0,5.87953 3.84906,10.87625 9.11062,12.73016c-0.05297,0.2825 -0.07062,0.54734 -0.07062,0.82984v14.4075c-3.81375,1.37719 -6.81531,4.37875 -8.1925,8.1925h-10.735c-1.88922,-5.22625 -6.86828,-9.04 -12.7125,-9.04c-7.43328,0 -13.56,6.12672 -13.56,13.56c0,5.84422 3.81375,10.82328 9.04,12.7125v14.4075c-0.01766,1.62438 0.82984,3.14281 2.24234,3.97266c1.4125,0.81219 3.14281,0.81219 4.55531,0c1.4125,-0.82984 2.26,-2.34828 2.24234,-3.97266v-14.4075c3.81375,-1.37719 6.81531,-4.37875 8.1925,-8.1925h10.735c1.88922,5.22625 6.86828,9.04 12.7125,9.04c5.84422,0 10.82328,-3.81375 12.7125,-9.04h10.735c1.37719,3.81375 4.37875,6.81531 8.1925,8.1925v14.4075c-0.01766,1.62438 0.82984,3.14281 2.24234,3.97266c1.4125,0.81219 3.14281,0.81219 4.55531,0c1.4125,-0.82984 2.26,-2.34828 2.24234,-3.97266v-14.4075c5.22625,-1.88922 9.04,-6.86828 9.04,-12.7125c0,-7.43328 -6.12672,-13.56 -13.56,-13.56c-5.84422,0 -10.82328,3.81375 -12.7125,9.04h-10.735c-1.37719,-3.81375 -4.37875,-6.81531 -8.1925,-8.1925v-14.4075c0,-0.2825 -0.01766,-0.54734 -0.07062,-0.82984c5.26156,-1.85391 9.11062,-6.85063 9.11062,-12.73016c0,-5.84422 -3.81375,-10.82328 -9.04,-12.7125v-14.4075c0,-0.2825 -0.01766,-0.54734 -0.07062,-0.82984c5.26156,-1.85391 9.11062,-6.85062 9.11062,-12.73016c0,-5.84422 -3.81375,-10.82328 -9.04,-12.7125v-14.4075c0,-0.2825 -0.01766,-0.54734 -0.07062,-0.82984c4.44937,-1.57141 7.89234,-5.3675 8.84578,-10.06406l14.83125,-2.11875c2.03047,4.96141 6.90359,8.49266 12.55359,8.49266c0.17656,0 0.35312,-0.05297 0.51203,-0.05297l3.53125,28.16172c-4.99672,2.01281 -8.56328,6.90359 -8.56328,12.57125c0,7.43328 6.12672,13.56 13.56,13.56c6.25031,0 11.52953,-4.34344 13.06562,-10.13469l22.49406,-7.50391c2.47187,2.50719 5.87953,4.07859 9.64031,4.07859c7.43328,0 13.56,-6.12672 13.56,-13.56c0,-7.43328 -6.12672,-13.56 -13.56,-13.56c-7.43328,0 -13.56,6.12672 -13.56,13.56c0,0.42375 0.08828,0.81219 0.12359,1.21828l-19.59844,6.53281c-1.60672,-3.33703 -4.52,-5.89719 -8.08656,-7.04484l-3.93734,-31.49875c2.66609,-2.48953 4.37875,-5.98547 4.37875,-9.8875c0,-7.43328 -6.12672,-13.56 -13.56,-13.56c-6.02078,0 -11.14109,4.06094 -12.87141,9.53437l-15.87297,2.27766c-1.60672,-3.00156 -4.25516,-5.33219 -7.48625,-6.46219c0.05297,-0.2825 0.07062,-0.54734 0.07062,-0.82984v-13.56c0,-0.2825 -0.01766,-0.54734 -0.07062,-0.81219c5.26156,-1.87156 9.11062,-6.86828 9.11062,-12.74781c0,-7.43328 -6.12672,-13.56 -13.56,-13.56zM108.48,18.08c2.5425,0 4.52,1.9775 4.52,4.52c0,2.5425 -1.9775,4.52 -4.52,4.52c-2.5425,0 -4.52,-1.9775 -4.52,-4.52c0,-2.5425 1.9775,-4.52 4.52,-4.52zM149.16,54.24c2.5425,0 4.52,1.9775 4.52,4.52c0,2.5425 -1.9775,4.52 -4.52,4.52c-2.45422,0 -4.32578,-1.83625 -4.46703,-4.2375c0.01766,-0.19422 0.01766,-0.38844 0.01766,-0.58266c0.14125,-2.40125 2.01281,-4.21984 4.44938,-4.21984zM108.48,58.76c2.24234,0 3.97266,1.57141 4.36109,3.6725c0.01766,0.30016 0.08828,0.565 0.15891,0.8475c0,2.5425 -1.9775,4.52 -4.52,4.52c-2.5425,0 -4.52,-1.9775 -4.52,-4.52c0,-2.5425 1.9775,-4.52 4.52,-4.52zM67.8,63.28c2.5425,0 4.52,1.9775 4.52,4.52c0,2.5425 -1.9775,4.52 -4.52,4.52c-2.5425,0 -4.52,-1.9775 -4.52,-4.52c0,-2.5425 1.9775,-4.52 4.52,-4.52zM203.4,94.92c2.5425,0 4.52,1.9775 4.52,4.52c0,2.5425 -1.9775,4.52 -4.52,4.52c-2.5425,0 -4.52,-1.9775 -4.52,-4.52c0,-2.5425 1.9775,-4.52 4.52,-4.52zM108.21516,99.49297c0.17656,0.01766 0.35313,0.01766 0.52969,0c2.41891,0.14125 4.25516,2.01281 4.25516,4.46703c0,2.5425 -1.9775,4.52 -4.52,4.52c-2.5425,0 -4.52,-1.9775 -4.52,-4.52c0,-2.45422 1.85391,-4.32578 4.25516,-4.46703zM157.97047,108.53297c0.15891,0 0.31781,0 0.47672,0c2.41891,0.12359 4.27281,2.01281 4.27281,4.46703c0,2.5425 -1.9775,4.52 -4.52,4.52c-2.5425,0 -4.52,-1.9775 -4.52,-4.52c0,-2.47187 1.85391,-4.36109 4.29047,-4.46703zM54.24,117.52c2.5425,0 4.52,1.9775 4.52,4.52c0,2.5425 -1.9775,4.52 -4.52,4.52c-2.5425,0 -4.52,-1.9775 -4.52,-4.52c0,-2.5425 1.9775,-4.52 4.52,-4.52zM108.21516,140.17297c0.17656,0.01766 0.35313,0.01766 0.52969,0c2.41891,0.14125 4.25516,2.01281 4.25516,4.46703c0,2.5425 -1.9775,4.52 -4.52,4.52c-2.5425,0 -4.52,-1.9775 -4.52,-4.52c0,-2.45422 1.85391,-4.32578 4.25516,-4.46703zM22.6,162.72c2.5425,0 4.52,1.9775 4.52,4.52c0,2.5425 -1.9775,4.52 -4.52,4.52c-2.5425,0 -4.52,-1.9775 -4.52,-4.52c0,-2.5425 1.9775,-4.52 4.52,-4.52zM72.32,180.8c2.45422,0 4.32578,1.85391 4.46703,4.25516c-0.01766,0.17656 -0.01766,0.35312 0,0.52969c-0.14125,2.31297 -1.88922,4.07859 -4.20219,4.20219c-0.12359,0 -0.22953,-0.01766 -0.33547,-0.01766c-0.07062,0.01766 -0.12359,0.01766 -0.19422,0.01766c-2.41891,-0.14125 -4.25516,-2.01281 -4.25516,-4.46703c0,-2.5425 1.9775,-4.52 4.52,-4.52zM144.64,180.8c2.5425,0 4.52,1.9775 4.52,4.52c0,2.45422 -1.85391,4.32578 -4.25516,4.46703c-0.12359,0 -0.22953,-0.01766 -0.33547,-0.01766c-0.07063,0.01766 -0.12359,0.01766 -0.19422,0.01766c-2.31297,-0.14125 -4.07859,-1.88922 -4.20219,-4.20219c0.01766,-0.17656 0.01766,-0.35313 0,-0.52969c0.14125,-2.41891 2.01281,-4.25516 4.46703,-4.25516zM108.21516,180.85297c0.17656,0.01766 0.35313,0.01766 0.52969,0c2.31297,0.14125 4.07859,1.88922 4.20219,4.20219c-0.01766,0.17656 -0.01766,0.35312 0,0.52969c-0.14125,2.41891 -2.01281,4.25516 -4.46703,4.25516c-2.45422,0 -4.32578,-1.85391 -4.46703,-4.25516c0.01766,-0.17656 0.01766,-0.35313 0,-0.52969c0.14125,-2.31297 1.88922,-4.07859 4.20219,-4.20219z"></path></g></g></svg>