<svg xmlns="http://www.w3.org/2000/svg" x="0px" y="0px"
width="100" height="100"
viewBox="0 0 226 226"
style=" fill:#000000;"><g fill="none" fill-rule="nonzero" stroke="none" stroke-width="1" stroke-linecap="butt" stroke-linejoin="miter" stroke-miterlimit="10" stroke-dasharray="" stroke-dashoffset="0" font-family="none" font-weight="none" font-size="none" text-anchor="none" style="mix-blend-mode: normal"><path d="M0,226v-226h226v226z" fill="none"></path><g fill="#28b351"><path d="M88.80542,18.59424c-0.4552,0.05518 -0.9104,0.19312 -1.33802,0.42761c-1.71045,0.93799 -2.33118,3.08984 -1.39319,4.7865l3.40711,6.19348c0.64832,1.17248 1.84839,1.83459 3.10364,1.83459c0.56555,0 1.1449,-0.13794 1.69666,-0.44141c1.69666,-0.93799 2.33118,-3.08984 1.39319,-4.80029l-3.4209,-6.17969c-0.70349,-1.28284 -2.08289,-1.95874 -3.44848,-1.8208zM164.12036,21.24268c-9.21436,-0.37244 -22.64966,2.06909 -49.68579,13.33875c-28.55347,11.89038 -56.90002,36.85742 -79.81177,70.29395c-0.42761,0.62073 -0.73108,1.04834 -0.93799,1.32422l-0.2207,0.30347c-7.22803,9.94544 -19.33911,29.65698 -19.33911,50.05823c0,23.76697 11.83521,35.86426 16.88379,41.02319l0.38623,0.41382c4.20715,4.3313 11.06275,6.81421 18.81494,6.81421c2.0415,0 3.8761,-0.09656 5.4762,-0.17932c5.7107,-0.2345 9.46265,-1.03455 13.22839,-10.08337l4.02783,-9.84888c3.98645,-9.71094 9.42127,-23.0083 10.20752,-24.63599c0.80005,-1.66907 3.2002,-6.73145 0.66211,-11.68347c-1.6001,-3.4209 -3.10364,-5.17273 -5.18652,-7.60046l-0.48279,-0.53796c-1.03454,-1.22766 -2.0553,-2.31738 -3.06225,-3.40711c-1.25525,-1.32422 -2.4967,-2.64844 -3.94507,-4.44165c-2.19323,-2.57947 -2.77258,-3.4347 -1.40698,-5.77966c4.12439,-7.03491 12.88354,-20.48401 25.11877,-31.4364c15.86304,-14.20776 28.69141,-19.43567 34.8573,-21.94617l1.47595,-0.59314c2.28979,-0.95178 5.43481,-1.04834 7.26941,0.92419c2.88294,3.13123 6.42798,8.13843 10.19373,13.4491l1.95874,2.75879c3.82092,5.42102 9.3385,7.11768 15.46301,4.7865c5.04858,-1.76562 31.86401,-15.20093 32.13989,-15.33887c0.93799,-0.469 1.80701,-0.89661 2.60706,-1.28284c3.66919,-1.77942 6.31763,-3.06226 7.7522,-5.58655c2.17945,-3.82092 1.07593,-15.10437 -2.44153,-25.13257c-4.34509,-12.34558 -20.67712,-22.02893 -33.85034,-24.87048c-2.46911,-0.53796 -5.07617,-0.97937 -8.15222,-1.10352zM162.38232,28.22241c3.62781,0 6.1521,0.53796 8.40051,1.02075c11.21448,2.42773 25.35327,10.88342 28.67761,20.30469c0.30347,0.89661 0.55176,1.75183 0.81384,2.60705l-50.00305,24.99463c-2.35877,-3.22778 -4.60718,-6.17969 -6.64868,-8.40051c-3.6416,-3.91748 -9.60059,-4.95203 -15.17334,-2.63464l-1.39319,0.59314c-6.02795,2.44153 -20.13916,8.17981 -36.9126,23.20142c-12.95252,11.60071 -22.16687,25.7395 -26.52576,33.14685c-3.90369,6.78662 -0.12414,11.24207 2.17945,13.95947c0.6897,0.85523 1.37939,1.64148 2.0415,2.40015l-23.4773,56.99658c-0.08276,0.20691 -0.08276,0.44141 -0.12414,0.66211c-3.22778,-0.75867 -5.97278,-2.13806 -7.77979,-4.00025l-0.41382,-0.41382c-4.81409,-4.93823 -14.85608,-15.21472 -14.85608,-36.09875c0,-18.40112 11.26965,-36.65052 17.9873,-45.89246l0.19312,-0.27588c0.19311,-0.26209 0.55176,-0.77246 1.07593,-1.53113c22.15308,-32.31921 49.40991,-56.38965 76.70813,-67.75586c25.10498,-10.4834 37.6023,-12.88354 45.23035,-12.88354zM72.70789,28.25c-0.4552,0.09656 -0.89661,0.27588 -1.29663,0.55176c-1.62768,1.07593 -2.0553,3.26916 -0.96557,4.89685l3.93127,5.86243c0.6897,1.02075 1.80701,1.55871 2.93811,1.55871c0.67591,0 1.3656,-0.19311 1.97254,-0.59314c1.61389,-1.08972 2.0415,-3.26917 0.95178,-4.89685l-3.93127,-5.86243c-0.81384,-1.22766 -2.24841,-1.77942 -3.60022,-1.51734zM58.87256,39.1748c-0.89661,-0.11035 -1.83459,0.13794 -2.59326,0.75867c-1.51733,1.21387 -1.76562,3.43469 -0.53796,4.96582l4.42786,5.48999c0.70349,0.86902 1.71045,1.32422 2.74499,1.32422c0.78626,0 1.57251,-0.24829 2.22083,-0.78625c1.51733,-1.21387 1.76563,-3.43469 0.53796,-4.96582l-4.42786,-5.50379c-0.60693,-0.75866 -1.47595,-1.18628 -2.37256,-1.28284zM44.67859,51.36865c-0.89661,-0.02759 -1.80701,0.28967 -2.5105,0.97937c-1.40698,1.3518 -1.46216,3.58643 -0.11035,4.97961l4.89685,5.10376c0.70349,0.71729 1.62769,1.07593 2.55188,1.07593c0.88281,0 1.76563,-0.31726 2.45532,-0.97937c1.39319,-1.3518 1.44836,-3.58643 0.08276,-4.99341l-4.88305,-5.08996c-0.6897,-0.70349 -1.5863,-1.06214 -2.48291,-1.07593zM113.80005,57.61731c-0.4552,0.0138 -0.9242,0.12415 -1.3656,0.31726c-2.09668,0.97937 -5.31067,2.75879 -8.62121,4.75891c-1.66907,1.00696 -2.20703,3.17261 -1.20007,4.84168c0.66211,1.10352 1.8208,1.71045 3.02087,1.71045c0.62073,0 1.25525,-0.16553 1.83459,-0.51038c4.60718,-2.77258 7.24182,-4.05542 7.94531,-4.38648c1.76563,-0.82764 2.53809,-2.92432 1.71045,-4.70373c-0.62073,-1.31043 -1.94495,-2.08289 -3.32434,-2.02771zM201.95715,59.20361c0.86902,5.08996 0.78626,8.75916 0.469,9.65576c-0.35864,0.62073 -2.75879,1.77942 -4.68994,2.71741c-0.82764,0.40003 -1.73804,0.84143 -2.71741,1.32422c-6.73145,3.39331 -27.50513,13.6698 -31.36743,15.02161c-3.21399,1.22766 -5.31067,0.57934 -7.2832,-2.23462l-1.93115,-2.71741zM31.61572,64.73498c-0.89661,0.05518 -1.77942,0.469 -2.42773,1.20007c-1.26904,1.46216 -1.1311,3.69678 0.33105,4.97961l5.32446,4.64856c0.66211,0.57934 1.50354,0.86902 2.33118,0.86902c0.97937,0 1.95874,-0.40002 2.66223,-1.20007c1.26904,-1.46216 1.11731,-3.71057 -0.34485,-4.99341l-5.31067,-4.63477c-0.74487,-0.64832 -1.66907,-0.9242 -2.56568,-0.86902zM93.53674,70.625c-0.88281,-0.13794 -1.83459,0.06897 -2.62085,0.64832c-4.96582,3.61401 -9.5592,7.35217 -13.65601,11.11792c-9.5592,8.82813 -17.35278,17.89075 -23.16003,26.91199c-1.04834,1.65527 -0.57935,3.83472 1.06213,4.89685c0.59314,0.37244 1.25525,0.55176 1.90356,0.55176c1.15869,0 2.30359,-0.56555 2.97949,-1.62769c5.4762,-8.51086 12.86975,-17.10449 22.00134,-25.5188c3.88989,-3.58643 8.27637,-7.17285 13.02148,-10.63513c1.5863,-1.1449 1.93115,-3.35193 0.77246,-4.92444c-0.56555,-0.78625 -1.40698,-1.26904 -2.30359,-1.42078zM19.75293,79.20484c-0.88281,0.13794 -1.72424,0.62073 -2.28979,1.40698c-1.15869,1.57251 -0.81384,3.77954 0.75866,4.92444l5.6969,4.17957c0.63452,0.4552 1.3656,0.6759 2.08288,0.6759c1.08972,0 2.16565,-0.49658 2.85535,-1.44836c1.15869,-1.57251 0.81384,-3.79334 -0.77246,-4.93823l-5.6969,-4.16577c-0.78625,-0.57934 -1.73804,-0.77246 -2.63464,-0.63452zM10.56616,94.57129c-1.3656,-0.19311 -2.77259,0.42761 -3.53125,1.66907c-1.00696,1.68286 -0.48279,3.84851 1.18628,4.85547l6.05554,3.6554c0.56555,0.34485 1.20007,0.51038 1.83459,0.51038c1.18628,0 2.35877,-0.60693 3.00708,-1.69666c1.02075,-1.68286 0.48279,-3.84851 -1.18628,-4.85547l-6.04175,-3.65539c-0.42761,-0.24829 -0.88281,-0.41382 -1.32422,-0.48279zM73.09412,145.18127l0.17932,0.20691c1.97254,2.2898 2.95191,3.43469 4.19336,6.09693c0.70349,1.37939 0.49658,3.02087 -0.70349,5.53137c-0.80005,1.68286 -4.97961,11.86279 -10.35925,25.00842l-4.02783,9.8075c-2.30359,5.53137 -3.10364,5.57275 -7.03491,5.73828c-1.17248,0.05518 -2.4967,0.11035 -3.8761,0.13794z"></path></g></g></svg>