<svg xmlns="http://www.w3.org/2000/svg" x="0px" y="0px"
width="100" height="100"
viewBox="0 0 226 226"
style=" fill:#000000;"><g fill="none" fill-rule="nonzero" stroke="none" stroke-width="1" stroke-linecap="butt" stroke-linejoin="miter" stroke-miterlimit="10" stroke-dasharray="" stroke-dashoffset="0" font-family="none" font-weight="none" font-size="none" text-anchor="none" style="mix-blend-mode: normal"><path d="M0,226v-226h226v226z" fill="none"></path><g fill="#28b351"><path d="M36.16,36.16c-10.13836,0 -18.08,7.94164 -18.08,18.08v99.44c0,3.33576 0.92688,6.38676 2.43656,9.04h-11.47656c-2.49956,0 -4.52,2.02044 -4.52,4.52c0,12.46164 10.13836,22.6 22.6,22.6h171.76c12.46164,0 22.6,-10.13836 22.6,-22.6c0,-2.49956 -2.02044,-4.52 -4.52,-4.52h-11.47656c1.50968,-2.65324 2.43656,-5.70424 2.43656,-9.04v-99.44c0,-10.13836 -7.94164,-18.08 -18.08,-18.08zM36.16,45.2h153.68c5.15732,0 9.04,3.88268 9.04,9.04v99.44c0,5.15732 -3.88268,9.04 -9.04,9.04h-153.68c-5.15732,0 -9.04,-3.88268 -9.04,-9.04v-99.44c0,-5.15732 3.88268,-9.04 9.04,-9.04zM119.77117,67.7382c-2.14882,0.00916 -3.99422,1.52976 -4.41406,3.63719l-13.56,63.28c-0.33794,1.58033 0.19304,3.22089 1.39286,4.30352c1.19982,1.08262 2.88614,1.44278 4.42355,0.94475c1.53741,-0.49803 2.69225,-1.77855 3.02937,-3.35905l13.56,-63.28c0.30712,-1.34542 -0.01715,-2.75743 -0.88051,-3.83405c-0.86335,-1.07661 -2.17121,-1.69988 -3.55121,-1.69236zM81.52773,81.30703c-1.49259,-0.0427 -2.90997,0.65443 -3.78726,1.86274l-15.59047,20.79023l15.59047,20.79023c1.49682,1.99901 4.33075,2.40612 6.32976,0.9093c1.99901,-1.49682 2.40612,-4.33075 0.9093,-6.32976l-11.52953,-15.36977l11.52953,-15.36977c1.04059,-1.34629 1.23702,-3.16286 0.50829,-4.70047c-0.72873,-1.53761 -2.25917,-2.53575 -3.96008,-2.58273zM144.33984,81.31586c-1.67383,0.09629 -3.15689,1.11109 -3.8529,2.6364c-0.69601,1.52531 -0.49065,3.31055 0.53353,4.63798l11.52953,15.36977l-11.52953,15.36977c-1.49682,1.99901 -1.08971,4.83294 0.9093,6.32976c1.99901,1.49682 4.83294,1.08971 6.32976,-0.9093l15.59047,-20.79023l-15.59047,-20.79023c-0.90559,-1.24516 -2.38266,-1.94378 -3.91969,-1.85391zM14.33688,171.76h21.82312h153.68h21.82313c-1.86676,5.26128 -6.88904,9.04 -12.78312,9.04h-171.76c-5.89408,0 -10.91636,-3.77872 -12.78312,-9.04z"></path></g></g></svg>