<svg xmlns="http://www.w3.org/2000/svg" x="0px" y="0px"
width="64" height="64"
viewBox="0 0 172 172"
style=" fill:#000000;"><g fill="none" fill-rule="nonzero" stroke="none" stroke-width="1" stroke-linecap="butt" stroke-linejoin="miter" stroke-miterlimit="10" stroke-dasharray="" stroke-dashoffset="0" font-family="none" font-weight="none" font-size="none" text-anchor="none" style="mix-blend-mode: normal"><path d="M0,172v-172h172v172z" fill="none"></path><g fill="#181818"><path d="M91.375,2.72949c-0.34643,0.07349 -0.68237,0.19946 -0.98682,0.40942c-1.23877,0.82935 -1.57471,2.48804 -0.74536,3.72681l3.65332,5.45898c0.5354,0.80835 0.58789,1.83716 0.16797,2.70849l-2.59302,5.17554c-1.29126,2.56152 -1.10229,5.65845 0.47241,8.052l1.71118,2.57202c0.58789,0.91333 0.58789,2.07861 -0.0105,2.97095l-1.41724,2.1416c-1.80566,2.698 -1.80566,6.19385 -0.02099,8.90234l1.41723,2.1731c0.60889,0.91333 0.59839,2.08911 -0.0105,2.99194l-3.34888,4.91309c-0.83984,1.22827 -0.5144,2.89746 0.70337,3.7373c0.47241,0.30444 0.99732,0.46191 1.51172,0.46191c0.86084,0 1.71118,-0.40942 2.22559,-1.17578l3.34888,-4.91309c1.84766,-2.70849 1.86865,-6.23584 0.06299,-8.98633l-1.42773,-2.1521c-0.59839,-0.91333 -0.59839,-2.07861 0,-2.97095l1.42773,-2.1416c1.80566,-2.70849 1.80566,-6.20435 0.021,-8.91284l-1.71118,-2.57202c-0.5249,-0.80835 -0.57739,-1.82666 -0.15747,-2.6875l2.59302,-5.18604c1.29126,-2.58252 1.10229,-5.66895 -0.50391,-8.08349l-3.64282,-5.45898c-0.61938,-0.92383 -1.71118,-1.34375 -2.73999,-1.15479zM75.2605,21.54199c-0.33594,0.06299 -0.67187,0.18897 -0.98682,0.39893c-1.23877,0.81885 -1.57471,2.47754 -0.75586,3.71631l3.41186,5.17554c0.58789,0.91333 0.58789,2.06812 -0.0105,2.97095l-1.41724,2.1416c-1.80566,2.698 -1.80566,6.19385 -0.02099,8.90234l1.41723,2.1731c0.60889,0.91333 0.59839,2.07861 -0.0105,2.99194l-3.34888,4.91309c-0.83984,1.22827 -0.5144,2.89746 0.70337,3.7373c0.47241,0.31494 0.99732,0.46191 1.51172,0.46191c0.86084,0 1.71118,-0.40942 2.22559,-1.17578l3.34888,-4.91309c1.84766,-2.70849 1.86865,-6.23584 0.06299,-8.98633l-1.42773,-2.1521c-0.59839,-0.91333 -0.59839,-2.07861 0,-2.97095l1.42773,-2.1416c1.80566,-2.70849 1.80566,-6.20435 0.021,-8.91284l-3.41186,-5.17554c-0.60889,-0.92383 -1.70068,-1.34375 -2.73999,-1.15479zM113.88281,29.68848c-1.02881,-0.19946 -2.1206,0.22046 -2.72949,1.14429l-3.40137,5.10205c-1.80566,2.698 -1.81616,6.20435 -0.03149,8.91284l1.42773,2.1626c0.60889,0.91333 0.59839,2.08911 -0.0105,3.00244l-3.35937,4.91309c-0.82935,1.21777 -0.50391,2.88696 0.71387,3.72681c0.47241,0.31494 0.99732,0.47241 1.51172,0.47241c0.86084,0 1.71118,-0.40942 2.22559,-1.17578l3.34888,-4.91309c1.84766,-2.70849 1.86865,-6.23584 0.06299,-8.98633l-1.42773,-2.1521c-0.59839,-0.91333 -0.59839,-2.07861 0,-2.97095l3.40137,-5.10205c0.82935,-1.23877 0.49341,-2.90796 -0.73486,-3.72681c-0.31494,-0.20996 -0.65088,-0.34643 -0.99732,-0.40942zM59.1355,37.75098c-0.33594,0.06299 -0.67187,0.19946 -0.98682,0.39893c-1.23877,0.81885 -1.57471,2.48804 -0.75586,3.7268l3.38037,5.14404c0.60889,0.91333 0.59839,2.07861 -0.0105,2.99194l-3.34888,4.91309c-0.83984,1.22827 -0.5144,2.89746 0.70337,3.7373c0.47241,0.31494 0.99732,0.46191 1.51172,0.46191c0.86084,0 1.71118,-0.40942 2.22559,-1.17578l3.34888,-4.91309c1.84766,-2.70849 1.86865,-6.23584 0.06299,-8.98633l-3.39087,-5.13354c-0.60889,-0.92383 -1.70068,-1.35425 -2.73999,-1.16528zM28.53369,64.5c-1.66919,0 -3.20191,0.75586 -4.23071,2.06811c-1.02881,1.31226 -1.38574,2.99195 -0.97632,4.60864l13.02808,52.1333c2.11011,8.46142 6.82373,16.09351 13.31152,21.81494h-38.41235c-1.01831,0 -1.94214,0.57739 -2.39355,1.49072c-0.46191,0.91333 -0.35693,1.99463 0.25195,2.80298l3.2229,4.3042c3.52734,4.71362 9.1543,7.5271 15.0437,7.5271h112.875c5.8894,0 11.51636,-2.81348 15.0542,-7.5271l3.2229,-4.3042c0.61939,-0.80835 0.71387,-1.90015 0.26245,-2.81348c-0.46191,-0.90283 -1.38574,-1.48022 -2.41455,-1.48022h-35.89282c5.10205,-4.50366 9.04932,-10.1831 11.54785,-16.52392c9.09131,-1.66919 23.84107,-5.07056 29.05859,-10.29859c3.56934,-3.55884 5.53247,-8.29346 5.53247,-13.34302c0,-5.04956 -1.96314,-9.78418 -5.53247,-13.35352c-5.20703,-5.20703 -12.71313,-6.75024 -19.3584,-4.50366l3.51685,-16.07251c0.35693,-1.5957 -0.03149,-3.2544 -1.0603,-4.52466c-1.02881,-1.28076 -2.55103,-2.00513 -4.18872,-2.00513zM28.53369,69.875h111.46826l-11.16992,51.04151c-2.20459,10.10962 -8.55591,18.88598 -17.42676,24.20849h-52.6687c-8.51392,-5.11255 -14.76026,-13.48999 -17.16431,-23.1272zM40.3125,75.25c-1.49072,0 -2.6875,1.20728 -2.6875,2.6875c0,1.48022 1.19678,2.6875 2.6875,2.6875h10.75c1.49072,0 2.6875,-1.20728 2.6875,-2.6875c0,-1.48022 -1.19678,-2.6875 -2.6875,-2.6875zM61.8125,75.25c-1.49072,0 -2.6875,1.20728 -2.6875,2.6875c0,1.48022 1.19678,2.6875 2.6875,2.6875h67.1875c1.49072,0 2.6875,-1.20728 2.6875,-2.6875c0,-1.48022 -1.19678,-2.6875 -2.6875,-2.6875zM146.80469,91.49048c3.78979,-0.27295 7.62158,1.0498 10.48755,3.91577c2.55103,2.55103 3.95776,5.9419 3.95776,9.55322c0,3.61133 -1.40674,7.0022 -3.95776,9.55322c-3.28589,3.28589 -13.62647,6.28833 -23.40015,8.26196c0.05249,-0.24146 0.13647,-0.47241 0.18896,-0.70337l6.20435,-28.34473c2.00513,-1.34375 4.25171,-2.07861 6.51929,-2.23608zM51.0625,123.625c-1.49072,0 -2.6875,1.20728 -2.6875,2.6875v5.375c0,1.48022 1.19678,2.6875 2.6875,2.6875c1.49072,0 2.6875,-1.20728 2.6875,-2.6875v-5.375c0,-1.48022 -1.19678,-2.6875 -2.6875,-2.6875zM64.5,123.625c-1.49072,0 -2.6875,1.20728 -2.6875,2.6875v5.375c0,1.48022 1.19678,2.6875 2.6875,2.6875c1.49072,0 2.6875,-1.20728 2.6875,-2.6875v-5.375c0,-1.48022 -1.19678,-2.6875 -2.6875,-2.6875zM77.9375,123.625c-1.49072,0 -2.6875,1.20728 -2.6875,2.6875v5.375c0,1.48022 1.19678,2.6875 2.6875,2.6875c1.49072,0 2.6875,-1.20728 2.6875,-2.6875v-5.375c0,-1.48022 -1.19678,-2.6875 -2.6875,-2.6875zM91.375,123.625c-1.49072,0 -2.6875,1.20728 -2.6875,2.6875v5.375c0,1.48022 1.19678,2.6875 2.6875,2.6875c1.49072,0 2.6875,-1.20728 2.6875,-2.6875v-5.375c0,-1.48022 -1.19678,-2.6875 -2.6875,-2.6875zM104.8125,123.625c-1.49072,0 -2.6875,1.20728 -2.6875,2.6875v5.375c0,1.48022 1.19678,2.6875 2.6875,2.6875c1.49072,0 2.6875,-1.20728 2.6875,-2.6875v-5.375c0,-1.48022 -1.19678,-2.6875 -2.6875,-2.6875zM118.25,123.625c-1.49072,0 -2.6875,1.20728 -2.6875,2.6875v5.375c0,1.48022 1.19678,2.6875 2.6875,2.6875c1.49072,0 2.6875,-1.20728 2.6875,-2.6875v-5.375c0,-1.48022 -1.19678,-2.6875 -2.6875,-2.6875zM16.62891,150.5h134.375c-2.51953,3.36987 -6.54028,5.375 -10.75,5.375h-112.875c-4.19922,0 -8.21997,-2.00513 -10.75,-5.375z"></path></g></g></svg>