<svg xmlns="http://www.w3.org/2000/svg" x="0px" y="0px"
width="100" height="100"
viewBox="0 0 226 226"
style=" fill:#000000;"><g fill="none" fill-rule="nonzero" stroke="none" stroke-width="1" stroke-linecap="butt" stroke-linejoin="miter" stroke-miterlimit="10" stroke-dasharray="" stroke-dashoffset="0" font-family="none" font-weight="none" font-size="none" text-anchor="none" style="mix-blend-mode: normal"><path d="M0,226v-226h226v226z" fill="none"></path><g fill="#28b351"><path d="M169.84485,13.51807c-4.70373,0 -9.14538,1.84839 -12.48352,5.18652l-12.46973,12.46973c-2.75879,-2.745 -7.24182,-2.745 -9.98682,0l-19.97363,19.97363c-2.75879,2.75879 -2.75879,7.24182 0,9.98682l0.16553,0.17932l-5.4624,5.44861l-50.09961,-50.09961c-4.01404,-4.01404 -10.97998,-4.01404 -14.99402,0l-34.94006,34.94006c-4.13818,4.13818 -4.13818,10.85584 0,14.99402l50.05823,50.05823l-40.16797,40.12659c-1.77942,1.77942 -2.86914,4.13818 -3.07605,6.64868l-2.38636,29.64319l-2.48291,17.38037c-0.16553,1.10352 0.20691,2.20703 1.00696,3.00708c0.66211,0.66211 1.55871,1.02075 2.48291,1.02075c0.17932,0 0.34485,0 0.51038,-0.02759l17.39416,-2.48291l29.79492,-2.19324c2.53809,-0.19311 4.91064,-1.26904 6.70386,-3.07605l40.16797,-40.0852l49.80993,49.79614c2.06909,2.06909 4.77271,3.08984 7.49011,3.08984c2.71741,0 5.42102,-1.02075 7.49011,-3.08984l34.95386,-34.95386c4.13818,-4.13818 4.13818,-10.85584 0,-14.99402l-49.76855,-49.76855l5.4624,-5.4624c1.31043,1.22766 3.00708,1.91736 4.80029,1.91736c1.88977,0 3.66919,-0.74487 5.0072,-2.08289l19.97363,-19.97363c2.75879,-2.745 2.75879,-7.22803 0,-9.98682l12.48352,-12.46973c3.33814,-3.33813 5.17273,-7.76599 5.17273,-12.48352c0,-4.73132 -1.83459,-9.15918 -5.17273,-12.49732l-24.96704,-24.95325c-3.33814,-3.33813 -7.76599,-5.18652 -12.49732,-5.18652zM52.03076,20.63574c0.9242,0 1.83459,0.34485 2.4967,1.02075l2.5105,2.48291l-7.49011,7.49011c-1.39319,1.37939 -1.39319,3.61402 0,4.99341c0.6759,0.6897 1.5863,1.03455 2.48291,1.03455c0.9104,0 1.8208,-0.34485 2.4967,-1.03455l7.49011,-7.49011l7.50391,7.49011l-12.48352,12.48352c-1.39319,1.39319 -1.39319,3.61402 0,5.0072c0.6759,0.6759 1.5863,1.02075 2.4967,1.02075c0.89661,0 1.80701,-0.34485 2.48291,-1.02075l12.48352,-12.49732l7.50391,7.49011l-7.49011,7.50391c-1.37939,1.37939 -1.37939,3.60022 0,4.97961c0.6897,0.6897 1.5863,1.03455 2.4967,1.03455c0.9104,0 1.80701,-0.34485 2.4967,-1.03455l7.49011,-7.47632l7.49011,7.47632l-12.48352,12.49732c-1.37939,1.37939 -1.37939,3.60022 0,4.97961c0.6897,0.6897 1.5863,1.04834 2.49671,1.04834c0.9104,0 1.807,-0.35864 2.4967,-1.04834l12.48352,-12.46973l5.15894,5.14514l-39.97486,39.93347l-50.07202,-50.08582c-1.37939,-1.3656 -1.37939,-3.61401 0,-4.97961l34.95386,-34.95386c0.66211,-0.67591 1.57251,-1.02075 2.48291,-1.02075zM169.84485,20.69092c2.745,0 5.50379,0.99316 7.50391,2.99329l24.96704,24.96704c2.00012,2.00012 3.10364,4.66235 3.10364,7.49011c0,2.82776 -1.10352,5.48999 -3.10364,7.49011l-12.48352,12.49732l-39.96106,-39.96106l12.49732,-12.48352c2.00012,-2.00012 4.74512,-3.00708 7.47632,-2.99329zM139.8844,36.16773l24.98084,24.96704l22.47034,22.47034l2.49671,2.5105l-4.99341,4.97961c-1.37939,-1.37939 -3.61401,-1.37939 -4.99341,0l-4.99341,5.0072c-1.37939,1.37939 -1.37939,3.60022 0,4.97961l-4.97961,5.0072h-0.01379l-49.94788,-49.94788l4.99341,-4.99341c0.6897,0.6897 1.5863,1.03455 2.4967,1.03455c0.9104,0 1.80701,-0.34485 2.4967,-1.03455l5.0072,-4.99341c1.37939,-1.37939 1.37939,-3.61402 0,-4.99341zM144.8916,52.61011c-0.9104,0 -1.80701,0.34485 -2.4967,1.03454l-5.0072,4.99341c-1.37939,1.37939 -1.37939,3.61401 0,4.99341c0.6897,0.6897 1.6001,1.03455 2.4967,1.03455c0.9104,0 1.8208,-0.34485 2.5105,-1.03455l4.97961,-4.99341c1.39319,-1.37939 1.39319,-3.61402 0,-4.99341c-0.6897,-0.6897 -1.5863,-1.03454 -2.48291,-1.03454zM157.36133,65.10742c-0.89661,0 -1.79321,0.33105 -2.48291,1.03455l-5.0072,4.97961c-1.3656,1.39319 -1.3656,3.62781 0,5.0072c0.6897,0.6759 1.6001,1.02075 2.5105,1.02075c0.89661,0 1.79321,-0.34485 2.4967,-1.02075l4.97961,-5.0072c1.37939,-1.37939 1.37939,-3.61401 0,-4.97961c-0.6897,-0.70349 -1.5863,-1.03455 -2.4967,-1.03455zM120.10388,66.3075l39.94727,39.96106l-92.86084,92.70911l-3.36572,-16.82861l58.58289,-58.59668c1.37939,-1.37939 1.37939,-3.60022 0,-4.97961c-1.37939,-1.39319 -3.60022,-1.39319 -4.99341,0l-58.59668,58.59668l-8.31775,-1.66907l-1.66907,-8.33154l48.60986,-48.59607c1.37939,-1.39319 1.37939,-3.61401 0,-5.0072c-1.37939,-1.37939 -3.61401,-1.37939 -4.99341,0l-48.59607,48.60986l-16.46997,-3.28296zM169.85864,77.57715c-0.89661,0 -1.80701,0.34485 -2.49671,1.04834l-4.99341,4.97961c-1.37939,1.39319 -1.37939,3.61402 0,5.0072c0.6897,0.6759 1.5863,1.03455 2.4967,1.03455c0.9104,0 1.80701,-0.35864 2.4967,-1.03455l4.99341,-5.0072c1.37939,-1.37939 1.37939,-3.61401 0,-4.97961c-0.6897,-0.70349 -1.6001,-1.04834 -2.4967,-1.04834zM114.91736,92.57117c-0.9104,0 -1.80701,0.33105 -2.48291,1.02075l-9.98682,10.00061c-1.39319,1.37939 -1.39319,3.60022 0,4.99341c0.6759,0.6759 1.5863,1.03455 2.4967,1.03455c0.89661,0 1.80701,-0.35864 2.48291,-1.03455l9.98682,-9.98682c1.39319,-1.39319 1.39319,-3.61401 0,-5.0072c-0.6897,-0.6897 -1.5863,-1.02075 -2.4967,-1.02075zM154.58875,121.70398l2.33118,2.31738l-7.50391,7.49011c-1.37939,1.37939 -1.37939,3.61401 0,4.99341c0.6897,0.6897 1.6001,1.03455 2.4967,1.03455c0.9104,0 1.8208,-0.34485 2.5105,-1.03455l7.47632,-7.49011l7.50391,7.49011l-12.48352,12.48352c-1.39319,1.39319 -1.39319,3.61402 0,5.0072c0.6759,0.6759 1.5863,1.03455 2.48291,1.03455c0.9104,0 1.8208,-0.35864 2.4967,-1.03455l12.49732,-12.48352l7.49011,7.47632l-7.49011,7.49011c-1.39319,1.39319 -1.39319,3.61402 0,5.0072c0.6759,0.6759 1.5863,1.02075 2.4967,1.02075c0.89661,0 1.80701,-0.34485 2.48291,-1.02075l7.50391,-7.49011l7.49011,7.49011l-12.49732,12.48352c-1.37939,1.37939 -1.37939,3.60022 0,4.97961c0.6897,0.6897 1.6001,1.03455 2.5105,1.03455c0.89661,0 1.80701,-0.34485 2.4967,-1.03455l12.46973,-12.48352l5.0072,5.0072c1.3656,1.3656 1.3656,3.60022 0,4.97961l-34.96765,34.96765c-1.32422,1.32422 -3.65539,1.32422 -4.97961,0l-49.80994,-49.80994zM23.33936,165.27905l18.66321,3.72436l2.02771,10.19373c0.28967,1.39319 1.37939,2.48291 2.77258,2.75879l10.17993,2.0415l3.76575,18.84253l-26.87061,1.97254l-12.69043,-12.67664z"></path></g></g></svg>