<svg xmlns="http://www.w3.org/2000/svg" x="0px" y="0px"
width="64" height="64"
viewBox="0 0 226 226"
style=" fill:#000000;"><g fill="none" fill-rule="nonzero" stroke="none" stroke-width="1" stroke-linecap="butt" stroke-linejoin="miter" stroke-miterlimit="10" stroke-dasharray="" stroke-dashoffset="0" font-family="none" font-weight="none" font-size="none" text-anchor="none" style="mix-blend-mode: normal"><path d="M0,226v-226h226v226z" fill="none"></path><g fill="#28b351"><path d="M31.78125,21.1875c-4.59338,0 -8.48328,2.9657 -9.94543,7.0625h-4.17957c-5.83484,0 -10.59375,4.75891 -10.59375,10.59375v141.25c0,5.83484 4.75891,10.59375 10.59375,10.59375h74.92871c2.08289,0 3.88989,1.40698 4.40027,3.4209c1.55871,6.30383 7.20044,10.7041 13.69739,10.7041h11.69727c6.49695,0 12.13867,-4.40027 13.69739,-10.7041c0.51038,-2.01391 2.31738,-3.4209 4.40027,-3.4209h74.92871c5.83484,0 10.59375,-4.75891 10.59375,-10.59375v-141.25c0,-5.83484 -4.75891,-10.59375 -10.59375,-10.59375h-4.17957c-1.46216,-4.0968 -5.35205,-7.0625 -9.94543,-7.0625h-70.625c-5.77966,0 -10.86963,2.82776 -14.09741,7.14527c-3.21399,-4.3313 -8.35913,-7.14527 -14.15259,-7.14527zM31.78125,28.25h70.625c5.83484,0 10.59375,4.75891 10.59375,10.59375v120.0625c0,1.94495 1.57251,3.53125 3.53125,3.53125c1.95874,0 3.53125,-1.5863 3.53125,-3.53125v-120.0625c0,-5.83484 4.75891,-10.59375 10.59375,-10.59375h70.625c1.94495,0 3.53125,1.5863 3.53125,3.53125v134.1875c0,1.94495 -1.5863,3.53125 -3.53125,3.53125h-70.625c-5.79346,0 -10.91101,2.84155 -14.125,7.17285c-3.21399,-4.3313 -8.33154,-7.17285 -14.125,-7.17285h-70.625c-1.94495,0 -3.53125,-1.5863 -3.53125,-3.53125v-134.1875c0,-1.94495 1.5863,-3.53125 3.53125,-3.53125zM17.65625,35.3125h3.53125v130.65625c0,5.83484 4.75891,10.59375 10.59375,10.59375h70.625c5.83484,0 10.59375,4.75891 10.59375,10.59375c0,1.94495 1.57251,3.53125 3.53125,3.53125c1.95874,0 3.53125,-1.5863 3.53125,-3.53125c0,-5.83484 4.75891,-10.59375 10.59375,-10.59375h70.625c5.83484,0 10.59375,-4.75891 10.59375,-10.59375v-130.65625h3.53125c1.94495,0 3.53125,1.5863 3.53125,3.53125v141.25c0,1.94495 -1.5863,3.53125 -3.53125,3.53125h-74.92871c-5.33826,0 -9.94543,3.60022 -11.24207,8.77295c-0.78625,3.14502 -3.60022,5.35205 -6.85559,5.35205h-11.69727c-3.25537,0 -6.06934,-2.19324 -6.85559,-5.35205c-1.29663,-5.17273 -5.90381,-8.77295 -11.24207,-8.77295h-74.92871c-1.94495,0 -3.53125,-1.5863 -3.53125,-3.53125v-141.25c0,-1.94495 1.5863,-3.53125 3.53125,-3.53125zM45.90625,49.4375c-1.95874,0 -3.53125,1.5863 -3.53125,3.53125c0,1.94495 1.57251,3.53125 3.53125,3.53125h14.125c1.95874,0 3.53125,-1.5863 3.53125,-3.53125c0,-1.94495 -1.57251,-3.53125 -3.53125,-3.53125zM81.21875,49.4375c-1.95874,0 -3.53125,1.5863 -3.53125,3.53125c0,1.94495 1.57251,3.53125 3.53125,3.53125h3.53125c1.95874,0 3.53125,-1.5863 3.53125,-3.53125c0,-1.94495 -1.57251,-3.53125 -3.53125,-3.53125zM95.34375,49.4375c-1.95874,0 -3.53125,1.5863 -3.53125,3.53125c0,1.94495 1.57251,3.53125 3.53125,3.53125h3.53125c1.95874,0 3.53125,-1.5863 3.53125,-3.53125c0,-1.94495 -1.57251,-3.53125 -3.53125,-3.53125zM137.71875,49.4375c-1.95874,0 -3.53125,1.5863 -3.53125,3.53125c0,1.94495 1.57251,3.53125 3.53125,3.53125h14.125c1.95874,0 3.53125,-1.5863 3.53125,-3.53125c0,-1.94495 -1.57251,-3.53125 -3.53125,-3.53125zM187.15625,49.4375c-1.95874,0 -3.53125,1.5863 -3.53125,3.53125c0,1.94495 1.57251,3.53125 3.53125,3.53125h3.53125c1.95874,0 3.53125,-1.5863 3.53125,-3.53125c0,-1.94495 -1.57251,-3.53125 -3.53125,-3.53125zM45.90625,63.5625c-1.95874,0 -3.53125,1.5863 -3.53125,3.53125c0,1.94495 1.57251,3.53125 3.53125,3.53125h21.1875c1.95874,0 3.53125,-1.5863 3.53125,-3.53125c0,-1.94495 -1.57251,-3.53125 -3.53125,-3.53125zM81.21875,63.5625c-1.95874,0 -3.53125,1.5863 -3.53125,3.53125c0,1.94495 1.57251,3.53125 3.53125,3.53125h3.53125c1.95874,0 3.53125,-1.5863 3.53125,-3.53125c0,-1.94495 -1.57251,-3.53125 -3.53125,-3.53125zM95.34375,63.5625c-1.95874,0 -3.53125,1.5863 -3.53125,3.53125c0,1.94495 1.57251,3.53125 3.53125,3.53125h3.53125c1.95874,0 3.53125,-1.5863 3.53125,-3.53125c0,-1.94495 -1.57251,-3.53125 -3.53125,-3.53125zM137.71875,63.5625c-1.95874,0 -3.53125,1.5863 -3.53125,3.53125c0,1.94495 1.57251,3.53125 3.53125,3.53125h21.1875c1.95874,0 3.53125,-1.5863 3.53125,-3.53125c0,-1.94495 -1.57251,-3.53125 -3.53125,-3.53125zM173.03125,63.5625c-1.95874,0 -3.53125,1.5863 -3.53125,3.53125c0,1.94495 1.57251,3.53125 3.53125,3.53125h3.53125c1.95874,0 3.53125,-1.5863 3.53125,-3.53125c0,-1.94495 -1.57251,-3.53125 -3.53125,-3.53125zM187.15625,63.5625c-1.95874,0 -3.53125,1.5863 -3.53125,3.53125c0,1.94495 1.57251,3.53125 3.53125,3.53125h3.53125c1.95874,0 3.53125,-1.5863 3.53125,-3.53125c0,-1.94495 -1.57251,-3.53125 -3.53125,-3.53125zM45.90625,84.75c-1.95874,0 -3.53125,1.5863 -3.53125,3.53125c0,1.94495 1.57251,3.53125 3.53125,3.53125h14.125c1.95874,0 3.53125,-1.5863 3.53125,-3.53125c0,-1.94495 -1.57251,-3.53125 -3.53125,-3.53125zM95.34375,84.75c-1.95874,0 -3.53125,1.5863 -3.53125,3.53125c0,1.94495 1.57251,3.53125 3.53125,3.53125h3.53125c1.95874,0 3.53125,-1.5863 3.53125,-3.53125c0,-1.94495 -1.57251,-3.53125 -3.53125,-3.53125zM137.71875,84.75c-1.95874,0 -3.53125,1.5863 -3.53125,3.53125c0,1.94495 1.57251,3.53125 3.53125,3.53125h14.125c1.95874,0 3.53125,-1.5863 3.53125,-3.53125c0,-1.94495 -1.57251,-3.53125 -3.53125,-3.53125zM173.03125,84.75c-1.95874,0 -3.53125,1.5863 -3.53125,3.53125c0,1.94495 1.57251,3.53125 3.53125,3.53125h3.53125c1.95874,0 3.53125,-1.5863 3.53125,-3.53125c0,-1.94495 -1.57251,-3.53125 -3.53125,-3.53125zM187.15625,84.75c-1.95874,0 -3.53125,1.5863 -3.53125,3.53125c0,1.94495 1.57251,3.53125 3.53125,3.53125h3.53125c1.95874,0 3.53125,-1.5863 3.53125,-3.53125c0,-1.94495 -1.57251,-3.53125 -3.53125,-3.53125zM45.90625,98.875c-1.95874,0 -3.53125,1.5863 -3.53125,3.53125c0,1.94495 1.57251,3.53125 3.53125,3.53125h7.0625c1.95874,0 3.53125,-1.5863 3.53125,-3.53125c0,-1.94495 -1.57251,-3.53125 -3.53125,-3.53125zM81.21875,98.875c-1.95874,0 -3.53125,1.5863 -3.53125,3.53125c0,1.94495 1.57251,3.53125 3.53125,3.53125h3.53125c1.95874,0 3.53125,-1.5863 3.53125,-3.53125c0,-1.94495 -1.57251,-3.53125 -3.53125,-3.53125zM95.34375,98.875c-1.95874,0 -3.53125,1.5863 -3.53125,3.53125c0,1.94495 1.57251,3.53125 3.53125,3.53125h3.53125c1.95874,0 3.53125,-1.5863 3.53125,-3.53125c0,-1.94495 -1.57251,-3.53125 -3.53125,-3.53125zM137.71875,98.875c-1.95874,0 -3.53125,1.5863 -3.53125,3.53125c0,1.94495 1.57251,3.53125 3.53125,3.53125h7.0625c1.95874,0 3.53125,-1.5863 3.53125,-3.53125c0,-1.94495 -1.57251,-3.53125 -3.53125,-3.53125zM187.15625,98.875c-1.95874,0 -3.53125,1.5863 -3.53125,3.53125c0,1.94495 1.57251,3.53125 3.53125,3.53125h3.53125c1.95874,0 3.53125,-1.5863 3.53125,-3.53125c0,-1.94495 -1.57251,-3.53125 -3.53125,-3.53125zM45.90625,120.0625c-1.95874,0 -3.53125,1.5863 -3.53125,3.53125c0,1.94495 1.57251,3.53125 3.53125,3.53125h14.125c1.95874,0 3.53125,-1.5863 3.53125,-3.53125c0,-1.94495 -1.57251,-3.53125 -3.53125,-3.53125zM81.21875,120.0625c-1.95874,0 -3.53125,1.5863 -3.53125,3.53125c0,1.94495 1.57251,3.53125 3.53125,3.53125h3.53125c1.95874,0 3.53125,-1.5863 3.53125,-3.53125c0,-1.94495 -1.57251,-3.53125 -3.53125,-3.53125zM95.34375,120.0625c-1.95874,0 -3.53125,1.5863 -3.53125,3.53125c0,1.94495 1.57251,3.53125 3.53125,3.53125h3.53125c1.95874,0 3.53125,-1.5863 3.53125,-3.53125c0,-1.94495 -1.57251,-3.53125 -3.53125,-3.53125zM45.90625,134.1875c-1.95874,0 -3.53125,1.5863 -3.53125,3.53125c0,1.94495 1.57251,3.53125 3.53125,3.53125h7.0625c1.95874,0 3.53125,-1.5863 3.53125,-3.53125c0,-1.94495 -1.57251,-3.53125 -3.53125,-3.53125zM95.34375,134.1875c-1.95874,0 -3.53125,1.5863 -3.53125,3.53125c0,1.94495 1.57251,3.53125 3.53125,3.53125h3.53125c1.95874,0 3.53125,-1.5863 3.53125,-3.53125c0,-1.94495 -1.57251,-3.53125 -3.53125,-3.53125z"></path></g></g></svg>