<svg xmlns="http://www.w3.org/2000/svg" x="0px" y="0px"
width="64" height="64"
viewBox="0 0 226 226"
style=" fill:#000000;"><g fill="none" fill-rule="nonzero" stroke="none" stroke-width="1" stroke-linecap="butt" stroke-linejoin="miter" stroke-miterlimit="10" stroke-dasharray="" stroke-dashoffset="0" font-family="none" font-weight="none" font-size="none" text-anchor="none" style="mix-blend-mode: normal"><path d="M0,226v-226h226v226z" fill="none"></path><g fill="#28b351"><path d="M123.59375,0c-50.00603,0 -87.12366,33.22906 -88.25366,79.01172c-0.02825,1.10881 -0.19962,2.15053 -0.51037,3.08984l-19.1391,57.4173c-0.678,2.034 -0.40985,4.23038 0.74487,6.03485c1.15472,1.808 3.03985,2.98429 5.17273,3.22088l10.55927,1.17249c1.79034,0.20128 3.14502,1.70609 3.14502,3.51056v32.04334c0,5.01438 2.14016,9.8118 5.87622,13.15942c3.74313,3.34763 8.7634,4.95131 13.73187,4.39337l10.23511,-1.138h0.0069l19.02875,-2.11737l-1.88287,14.22156c-0.40256,3.02628 0.51838,6.07761 2.53119,8.37293c2.00928,2.29178 4.915,3.60712 7.966,3.60712h93.56433c2.99803,0 5.87059,-1.27544 7.87634,-3.50366c2.00575,-2.22822 2.97652,-5.22012 2.66223,-8.2005l-5.07617,-48.19605c-0.48025,-4.59063 0.31886,-9.17369 2.31049,-13.26288c11.60016,-23.75825 17.73212,-49.7456 17.73212,-75.14941c0,-45.74028 -36.30125,-77.6875 -88.28125,-77.6875zM123.59375,7.0625c56.10803,0 81.21875,35.47141 81.21875,70.625c0,24.33384 -5.88096,49.25139 -17.00793,72.05267c-2.57428,5.27922 -3.60789,11.19335 -2.98639,17.0976l5.06928,48.19604c0.1024,1.01347 -0.20818,1.98594 -0.88971,2.7381c-0.678,0.75216 -1.61428,1.16559 -2.62774,1.16559h-93.56433c-1.03466,0 -1.97733,-0.4301 -2.65533,-1.20697c-0.678,-0.77687 -0.97562,-1.76231 -0.84143,-2.78638l2.11047,-15.9527l11.37311,-1.26904c1.93866,-0.21541 3.3362,-1.95813 3.12433,-3.89679c-0.21541,-1.93513 -1.92635,-3.34343 -3.89679,-3.11743l-9.64197,1.06903l-38.23682,4.24854c-3.00509,0.33194 -5.99264,-0.62536 -8.23498,-2.63464c-2.24234,-2.00928 -3.53125,-4.88151 -3.53125,-7.89014v-32.04334c0,-5.40634 -4.0536,-9.928 -9.42816,-10.52478l-10.55926,-1.17938l19.146,-57.4173c0.53322,-1.60672 0.82311,-3.34051 0.86902,-5.15204c1.03113,-41.79234 35.17898,-72.12164 81.19116,-72.12164zM123.59375,17.65625c-1.95278,0 -3.53125,1.582 -3.53125,3.53125v7.0625c0,1.94925 1.57847,3.53125 3.53125,3.53125c1.95278,0 3.53125,-1.582 3.53125,-3.53125v-7.0625c0,-1.94925 -1.57847,-3.53125 -3.53125,-3.53125zM104.43396,20.2702c-0.45481,-0.06307 -0.9338,-0.03658 -1.40698,0.08966c-1.88216,0.50497 -3.00167,2.43871 -2.4967,4.3244l1.8277,6.828c0.42022,1.57847 1.84629,2.61395 3.40711,2.61395c0.30369,0 0.61698,-0.0325 0.9242,-0.11725c1.88216,-0.50497 3.00167,-2.44561 2.4967,-4.3313l-1.83459,-6.82111c-0.37873,-1.41427 -1.55298,-2.39717 -2.91742,-2.58636zM142.76734,20.2702c-1.36146,0.19003 -2.55249,1.17475 -2.93122,2.58636l-1.83459,6.82111c-0.50497,1.88569 0.61455,3.82986 2.4967,4.3313c0.30722,0.08122 0.62051,0.11725 0.9242,0.11725c1.55728,0 2.98689,-1.03548 3.40711,-2.61395l1.8277,-6.828c0.50497,-1.88569 -0.61455,-3.81943 -2.4967,-4.3244c-0.46789,-0.12624 -0.93937,-0.153 -1.39319,-0.08966zM85.19141,27.84998c-0.45459,0.05667 -0.904,0.20465 -1.32422,0.4483c-1.69147,0.97462 -2.26789,3.13994 -1.28973,4.82788l3.53125,6.11072c0.65681,1.13353 1.84044,1.76563 3.06225,1.76563c0.60031,0 1.20432,-0.14765 1.75873,-0.46899c1.69147,-0.97463 2.26789,-3.13995 1.28973,-4.82788l-3.53125,-6.11072c-0.73362,-1.2686 -2.13298,-1.91493 -3.49676,-1.74493zM161.9892,27.85687c-1.3656,-0.17 -2.7589,0.46944 -3.48987,1.73804l-3.53125,6.11761c-0.97816,1.68441 -0.40174,3.84283 1.28973,4.82099c0.55441,0.32134 1.15842,0.47589 1.75873,0.47589c1.22181,0 2.40897,-0.63209 3.06225,-1.76562l3.53125,-6.11761c0.97462,-1.68794 0.3982,-3.84636 -1.28973,-4.82098c-0.42198,-0.24366 -0.87592,-0.39164 -1.33112,-0.4483zM115.02771,49.4375c-3.24875,0 -6.06476,2.20218 -6.84869,5.35205l-3.22089,12.86975c-1.25359,0.45906 -2.51585,0.98632 -3.75885,1.57251l-11.40069,-6.8349c-2.78263,-1.67028 -6.33297,-1.23671 -8.62122,1.06213l-7.12457,7.11768c-2.29531,2.29531 -2.73241,5.84549 -1.06213,8.62811l6.8418,11.40069c-0.58972,1.25006 -1.11698,2.50189 -1.57251,3.75195l-12.87665,3.22088c-3.15341,0.791 -5.35205,3.61037 -5.35205,6.85559v10.07647c0,3.24522 2.19864,6.06123 5.35205,6.8487l12.86975,3.22088c0.45906,1.25006 0.98279,2.50189 1.57251,3.75195l-6.8349,11.40069c-1.67028,2.78262 -1.23671,6.32927 1.06213,8.62812l7.11768,7.11768c2.29531,2.29531 5.84196,2.74301 8.62811,1.06213l11.40069,-6.8418c1.24653,0.58972 2.49836,1.11345 3.75195,1.57251l3.22088,12.87665c0.78747,3.15341 3.60684,5.35205 6.85559,5.35205h10.06958c3.24875,0 6.06476,-2.20218 6.84869,-5.35205l3.22089,-12.86975c1.25359,-0.45906 2.51585,-0.98632 3.75885,-1.57251l11.3938,6.8349c2.77203,1.66675 6.32574,1.23671 8.62811,-1.06213l7.12457,-7.11768c2.29178,-2.29884 2.72888,-5.84549 1.06213,-8.62812l-6.8418,-11.40069c0.58972,-1.25006 1.11345,-2.49836 1.57251,-3.75195l12.87665,-3.22088c3.15341,-0.78747 5.35205,-3.60684 5.35205,-6.85559v-10.07647c0,-3.24169 -2.19864,-6.05433 -5.35205,-6.8418l-12.87665,-3.22089c-0.45553,-1.25359 -0.98279,-2.50879 -1.57251,-3.75885l6.8418,-11.3938c1.67381,-2.78262 1.23671,-6.3328 -1.06213,-8.62811l-7.12457,-7.12457c-2.29884,-2.29531 -5.84902,-2.72535 -8.62811,-1.06213l-11.3938,6.8418c-1.24653,-0.58972 -2.50526,-1.11345 -3.75885,-1.57251l-3.22089,-12.87665c-0.78394,-3.14988 -3.59994,-5.35205 -6.84869,-5.35205zM115.02771,56.5h10.07647l3.68298,14.74573c0.29663,1.19709 1.20355,2.15368 2.37946,2.5174c2.08697,0.64975 4.19297,1.52616 6.26935,2.62085c1.09469,0.56853 2.40291,0.53554 3.46228,-0.09655l13.05597,-7.83496l7.12457,7.11768l-7.83496,13.06286c-0.63563,1.05584 -0.67215,2.37112 -0.09655,3.46228c1.09822,2.0905 1.98169,4.19651 2.62085,6.26935c0.36725,1.17944 1.31677,2.0862 2.5174,2.38635l14.74573,3.68298v10.06958l-14.74573,3.68988c-1.20062,0.30016 -2.15015,1.20002 -2.5174,2.37946c-0.64269,2.07284 -1.52616,4.17885 -2.62085,6.26935c-0.57559,1.09116 -0.53554,2.40644 0.09655,3.46228l7.83496,13.05597l-7.12457,7.12457l-13.05597,-7.83496c-1.05937,-0.63209 -2.36759,-0.67199 -3.46228,-0.10345c-2.07284,1.09115 -4.18238,1.97446 -6.26935,2.62774c-1.17944,0.36725 -2.08283,1.32383 -2.37946,2.5174l-3.68988,14.74573h-10.07647l-3.68298,-14.74573c-0.29662,-1.19356 -1.20355,-2.15015 -2.37946,-2.5174c-2.09403,-0.64975 -4.20004,-1.52969 -6.26935,-2.62085c-0.51556,-0.27191 -1.08338,-0.40692 -1.64838,-0.40692c-0.63209,0 -1.25244,0.16801 -1.8139,0.50348l-13.06286,7.83496l-7.11768,-7.11768l7.83496,-13.06286c0.63563,-1.05584 0.67215,-2.36423 0.09655,-3.45538c-1.09822,-2.0905 -1.98169,-4.2034 -2.62085,-6.27625c-0.36725,-1.17944 -1.31677,-2.0793 -2.5174,-2.37946l-14.74573,-3.68988l-0.0069,-10.06958l14.75262,-3.68988c1.20063,-0.30016 2.15015,-1.20002 2.5174,-2.37946c0.64269,-2.06931 1.52616,-4.18575 2.62085,-6.27625c0.57559,-1.09116 0.53554,-2.39954 -0.09655,-3.45538l-7.83496,-13.06286l7.12457,-7.11768l13.05597,7.83496c1.06291,0.63563 2.38172,0.67568 3.46228,0.09655c2.07284,-1.09116 4.18238,-1.97463 6.26935,-2.62085c1.17944,-0.36725 2.08283,-1.32383 2.37946,-2.5174zM120.0625,91.8125c-9.73566,0 -17.65625,7.92059 -17.65625,17.65625c0,9.73566 7.92059,17.65625 17.65625,17.65625c9.73566,0 17.65625,-7.92059 17.65625,-17.65625c0,-9.73566 -7.92059,-17.65625 -17.65625,-17.65625zM120.0625,98.875c5.84069,0 10.59375,4.75306 10.59375,10.59375c0,5.84069 -4.75306,10.59375 -10.59375,10.59375c-5.84069,0 -10.59375,-4.75306 -10.59375,-10.59375c0,-5.84069 4.75306,-10.59375 10.59375,-10.59375z"></path></g></g></svg>