<svg xmlns="http://www.w3.org/2000/svg" x="0px" y="0px"
width="100" height="100"
viewBox="0 0 172 172"
style=" fill:#000000;"><g fill="none" fill-rule="nonzero" stroke="none" stroke-width="1" stroke-linecap="butt" stroke-linejoin="miter" stroke-miterlimit="10" stroke-dasharray="" stroke-dashoffset="0" font-family="none" font-weight="none" font-size="none" text-anchor="none" style="mix-blend-mode: normal"><path d="M0,172v-172h172v172z" fill="none"></path><g fill="#181818"><path d="M56.76,30.96c-19.92862,0 -36.12,16.19138 -36.12,36.12c0,20.70232 16.35735,39.44621 32.42469,53.12516c16.06734,13.67895 32.11899,22.34656 32.11899,22.34656c0.50955,0.27472 1.12311,0.27472 1.63265,0c0,0 16.05165,-8.66761 32.11899,-22.34656c16.06733,-13.67895 32.42469,-32.42284 32.42469,-53.12516c0,-19.92862 -16.19138,-36.12 -36.12,-36.12c-11.80148,0 -22.57555,5.79381 -29.24,14.58977c-6.66445,-8.79596 -17.43852,-14.58977 -29.24,-14.58977zM56.76,34.4c11.4055,0 21.98282,5.89839 27.80555,14.70734c0.31856,0.48131 0.85727,0.77078 1.43445,0.77078c0.57718,0 1.1159,-0.28947 1.43445,-0.77078c5.82273,-8.80895 16.40004,-14.70734 27.80555,-14.70734c18.06962,0 32.68,14.61038 32.68,32.68c0,18.85768 -15.46265,37.09379 -31.21531,50.50484c-15.09959,12.85505 -29.4773,20.77763 -30.70469,21.44961c-1.22739,-0.67198 -15.6051,-8.59455 -30.70469,-21.44961c-15.75267,-13.41105 -31.21531,-31.64716 -31.21531,-50.50484c0,-18.06962 14.61038,-32.68 32.68,-32.68zM56.76,41.28c-14.21788,0 -25.8,11.58212 -25.8,25.8c0,13.17243 9.09997,26.3243 20.4082,37.59812c11.30823,11.27382 24.89576,20.67753 34.18836,26.20984l0.44008,0.26539l0.44008,-0.26539c12.4571,-7.43413 32.63014,-21.82865 44.67969,-38.3607c0.19633,-0.24701 0.24164,-0.58169 0.11806,-0.87201c-0.12357,-0.29032 -0.3962,-0.48967 -0.71032,-0.51941c-0.31412,-0.02974 -0.61931,0.11491 -0.79517,0.37688c-11.66351,16.0024 -31.38078,30.19118 -43.72898,37.61156c-9.1786,-5.49953 -22.40597,-14.68939 -33.4157,-25.66563c-11.15884,-11.12488 -19.9043,-24.00739 -19.9043,-36.37867c0,-13.28492 10.79508,-24.08 24.08,-24.08c8.29877,0 16.21716,4.17533 20.62992,10.85078c1.90958,2.88875 5.14548,4.62922 8.61008,4.62922c3.46459,0 6.7005,-1.74047 8.61008,-4.62922c4.41276,-6.67545 12.33115,-10.85078 20.62992,-10.85078c2.60938,0 5.11422,0.42972 7.47125,1.20266c0.45177,0.14843 0.93833,-0.09748 1.08676,-0.54926c0.14843,-0.45177 -0.09748,-0.93833 -0.54926,-1.08676c-2.52089,-0.82667 -5.21045,-1.28664 -8.00875,-1.28664c-8.87371,0 -17.31633,4.43569 -22.06773,11.62344c-1.59234,2.40885 -4.28318,3.85656 -7.17227,3.85656c-2.88909,0 -5.57992,-1.44771 -7.17227,-3.85656c-4.7514,-7.18774 -13.19402,-11.62344 -22.06773,-11.62344zM126.39313,43.95406c-0.39687,0.00838 -0.73646,0.28728 -0.82181,0.67496c-0.08535,0.38768 0.1057,0.78341 0.46236,0.95769c2.8051,1.41333 5.28262,3.37069 7.33351,5.71766c0.19814,0.24393 0.51356,0.36037 0.82268,0.30371c0.30912,-0.05667 0.56272,-0.27742 0.66145,-0.57577c0.09873,-0.29836 0.02688,-0.62681 -0.18741,-0.85669c-2.19063,-2.50687 -4.84564,-4.60659 -7.85758,-6.12414c-0.12743,-0.06649 -0.26949,-0.09998 -0.4132,-0.09742zM136.47797,53.30992c-0.30324,0.01855 -0.5742,0.19571 -0.71282,0.46605c-0.13862,0.27034 -0.12433,0.59376 0.03759,0.85083c0.64936,1.06776 1.23376,2.16917 1.70656,3.31906c0.10419,0.30135 0.36654,0.52033 0.68166,0.56897c0.31512,0.04864 0.63129,-0.08103 0.8215,-0.33694c0.19021,-0.2559 0.22324,-0.59603 0.08583,-0.88375c-0.51448,-1.25123 -1.13878,-2.43398 -1.82414,-3.56094c-0.16423,-0.28005 -0.47216,-0.44376 -0.79617,-0.42328zM139.36031,60.18992c-0.25727,0.01562 -0.49397,0.1458 -0.64495,0.35469c-0.15098,0.20889 -0.20031,0.47449 -0.13443,0.72367c0.13729,0.55252 0.25887,1.10257 0.3561,1.65953c0.04156,0.31291 0.25119,0.5779 0.54612,0.69038c0.29493,0.11248 0.62778,0.05436 0.86715,-0.15141c0.23937,-0.20577 0.34679,-0.52612 0.27985,-0.8346c-0.10575,-0.60576 -0.23482,-1.19779 -0.37961,-1.78047c-0.09584,-0.40805 -0.47187,-0.68759 -0.89023,-0.6618z"></path></g></g></svg>