<svg xmlns="http://www.w3.org/2000/svg" x="0px" y="0px"
width="64" height="64"
viewBox="0 0 226 226"
style=" fill:#000000;"><g fill="none" fill-rule="nonzero" stroke="none" stroke-width="1" stroke-linecap="butt" stroke-linejoin="miter" stroke-miterlimit="10" stroke-dasharray="" stroke-dashoffset="0" font-family="none" font-weight="none" font-size="none" text-anchor="none" style="mix-blend-mode: normal"><path d="M0,226v-226h226v226z" fill="none"></path><g fill="#28b351"><path d="M113,10.59375c-7.78994,0 -14.125,6.33506 -14.125,14.125h-72.70789c-6.64228,0 -12.04211,5.54406 -12.04211,12.35938c0,4.98769 2.90705,9.27017 7.0625,11.22137v118.55206c0,7.29909 5.93956,13.24219 13.24219,13.24219h63.36249l-19.53223,29.8432c-1.06997,1.63144 -0.61068,3.82688 1.02075,4.89685c0.59678,0.38844 1.26728,0.57245 1.93115,0.57245c1.15119,0 2.2877,-0.55854 2.9657,-1.5932l21.1875,-32.37439c0.27568,-0.42034 0.4385,-0.87918 0.51727,-1.34491h3.58643v22.95313c0,1.95278 1.57847,3.53125 3.53125,3.53125c1.95278,0 3.53125,-1.57847 3.53125,-3.53125v-22.95312h3.58643c0.07877,0.46573 0.24159,0.92457 0.51727,1.34491l21.1875,32.37439c0.678,1.03466 1.81451,1.5932 2.9657,1.5932c0.66034,0 1.33437,-0.18401 1.93115,-0.57245c1.63144,-1.06997 2.09072,-3.26541 1.02075,-4.89685l-19.53223,-29.8432h63.36249c7.29909,0 13.24219,-5.94309 13.24219,-13.24219v-118.55206c4.15545,-1.9512 7.0625,-6.23368 7.0625,-11.22137c0,-6.81531 -5.39983,-12.35937 -12.04211,-12.35937h-72.70789c0,-7.78994 -6.33506,-14.125 -14.125,-14.125zM113,17.65625c3.89497,0 7.0625,3.16753 7.0625,7.0625h-14.125c0,-3.89497 3.16753,-7.0625 7.0625,-7.0625zM26.16711,31.78125h173.66577c2.74731,0 4.97961,2.37653 4.97961,5.29688c0,2.92034 -2.2323,5.29688 -4.97961,5.29688c-0.36849,0 -0.7077,0.10259 -1.04144,0.20691c-0.33515,-0.10529 -0.67117,-0.20691 -1.04144,-0.20691h-116.53125c-1.95278,0 -3.53125,1.57847 -3.53125,3.53125c0,1.95278 1.57847,3.53125 3.53125,3.53125h116.53125v117.41406c0,3.40766 -2.77203,6.17969 -6.17969,6.17969h-78.57031h-78.57031c-3.40766,0 -6.17969,-2.77203 -6.17969,-6.17969v-117.41406h10.59375c1.95278,0 3.53125,-1.57847 3.53125,-3.53125c0,-1.95278 -1.57847,-3.53125 -3.53125,-3.53125h-12.67664c-2.74731,0 -4.97961,-2.37653 -4.97961,-5.29687c0,-2.92034 2.2323,-5.29687 4.97961,-5.29687zM52.96875,42.375c-1.95278,0 -3.53125,1.57847 -3.53125,3.53125c0,1.95278 1.57847,3.53125 3.53125,3.53125h14.125c1.95278,0 3.53125,-1.57847 3.53125,-3.53125c0,-1.95278 -1.57847,-3.53125 -3.53125,-3.53125zM130.65625,63.5625c-1.95278,0 -3.53125,1.57847 -3.53125,3.53125v17.65625h-31.78125c-1.95278,0 -3.53125,1.57847 -3.53125,3.53125v14.125h-31.78125c-1.95278,0 -3.53125,1.57847 -3.53125,3.53125v24.71875h-14.125c-1.95278,0 -3.53125,1.57847 -3.53125,3.53125c0,1.95278 1.57847,3.53125 3.53125,3.53125h141.25c1.95278,0 3.53125,-1.57847 3.53125,-3.53125c0,-1.95278 -1.57847,-3.53125 -3.53125,-3.53125h-14.125v-63.5625c0,-1.95278 -1.57847,-3.53125 -3.53125,-3.53125zM134.1875,70.625h28.25v60.03125h-28.25v-42.375zM98.875,91.8125h28.25v38.84375h-28.25v-24.71875zM63.5625,109.46875h28.25v21.1875h-28.25zM42.375,151.84375c-1.94572,0 -3.53125,1.58553 -3.53125,3.53125v7.0625c0,1.94572 1.58553,3.53125 3.53125,3.53125c1.94572,0 3.53125,-1.58553 3.53125,-3.53125v-7.0625c0,-1.94572 -1.58553,-3.53125 -3.53125,-3.53125zM60.03125,151.84375c-1.94572,0 -3.53125,1.58553 -3.53125,3.53125v7.0625c0,1.94572 1.58553,3.53125 3.53125,3.53125c1.94572,0 3.53125,-1.58553 3.53125,-3.53125v-7.0625c0,-1.94572 -1.58553,-3.53125 -3.53125,-3.53125zM77.6875,151.84375c-1.94572,0 -3.53125,1.58553 -3.53125,3.53125v7.0625c0,1.94572 1.58553,3.53125 3.53125,3.53125c1.94572,0 3.53125,-1.58553 3.53125,-3.53125v-7.0625c0,-1.94572 -1.58553,-3.53125 -3.53125,-3.53125zM95.34375,151.84375c-1.94572,0 -3.53125,1.58553 -3.53125,3.53125v7.0625c0,1.94572 1.58553,3.53125 3.53125,3.53125c1.94572,0 3.53125,-1.58553 3.53125,-3.53125v-7.0625c0,-1.94572 -1.58553,-3.53125 -3.53125,-3.53125zM113,151.84375c-1.94572,0 -3.53125,1.58553 -3.53125,3.53125v7.0625c0,1.94572 1.58553,3.53125 3.53125,3.53125c1.94572,0 3.53125,-1.58553 3.53125,-3.53125v-7.0625c0,-1.94572 -1.58553,-3.53125 -3.53125,-3.53125zM130.65625,151.84375c-1.94572,0 -3.53125,1.58553 -3.53125,3.53125v7.0625c0,1.94572 1.58553,3.53125 3.53125,3.53125c1.94572,0 3.53125,-1.58553 3.53125,-3.53125v-7.0625c0,-1.94572 -1.58553,-3.53125 -3.53125,-3.53125zM148.3125,151.84375c-1.94572,0 -3.53125,1.58553 -3.53125,3.53125v7.0625c0,1.94572 1.58553,3.53125 3.53125,3.53125c1.94572,0 3.53125,-1.58553 3.53125,-3.53125v-7.0625c0,-1.94572 -1.58553,-3.53125 -3.53125,-3.53125zM165.96875,151.84375c-1.94572,0 -3.53125,1.58553 -3.53125,3.53125v7.0625c0,1.94572 1.58553,3.53125 3.53125,3.53125c1.94572,0 3.53125,-1.58553 3.53125,-3.53125v-7.0625c0,-1.94572 -1.58553,-3.53125 -3.53125,-3.53125zM183.625,151.84375c-1.94572,0 -3.53125,1.58553 -3.53125,3.53125v7.0625c0,1.94572 1.58553,3.53125 3.53125,3.53125c1.94572,0 3.53125,-1.58553 3.53125,-3.53125v-7.0625c0,-1.94572 -1.58553,-3.53125 -3.53125,-3.53125z"></path></g></g></svg>