<svg xmlns="http://www.w3.org/2000/svg" x="0px" y="0px"
width="80" height="80"
viewBox="0 0 172 172"
style=" fill:#000000;"><g fill="none" fill-rule="nonzero" stroke="none" stroke-width="1" stroke-linecap="butt" stroke-linejoin="miter" stroke-miterlimit="10" stroke-dasharray="" stroke-dashoffset="0" font-family="none" font-weight="none" font-size="none" text-anchor="none" style="mix-blend-mode: normal"><path d="M0,172v-172h172v172z" fill="none"></path><g id="original-icon" fill="#181818"><path d="M73.1,15.05c-27.26845,0 -49.45,22.18155 -49.45,49.45c0,18.4771 9.29418,28.46936 16.76328,36.49961c5.05035,5.4266 9.03672,9.71249 9.03672,15.10039v2.15v2.15v17.2c0,5.91146 4.83854,10.75 10.75,10.75h2.36836c1.00381,4.89034 5.35626,8.6 10.53164,8.6c5.17538,0 9.52783,-3.70966 10.53164,-8.6h2.36836c5.91146,0 10.75,-4.83854 10.75,-10.75v-19.35v-2.15c0,-5.3879 3.98637,-9.67379 9.03672,-15.10039c2.9154,-3.1347 6.10489,-6.57806 8.91494,-10.69961h-5.29521c-2.1672,2.8208 -4.51174,5.34765 -6.76494,7.76855c-5.4696,5.8781 -10.1915,10.9515 -10.1915,18.03145v2.15h-38.7v-2.15c0,-7.07995 -4.71985,-12.15335 -10.1873,-18.03145c-7.3186,-7.8647 -15.6127,-16.78135 -15.6127,-33.56855c0,-24.89485 20.25515,-45.15 45.15,-45.15c4.0205,0 7.89779,0.57936 11.61084,1.57051l3.49795,-3.50215c-4.76655,-1.53295 -9.84129,-2.36836 -15.10879,-2.36836zM108.83955,15.05l-3.14522,7.86514c-1.62582,0.50559 -3.18709,1.15026 -4.67373,1.93164l-7.78115,-3.33418l-7.22686,7.22686l3.33418,7.78115c-0.78157,1.48627 -1.42635,3.04667 -1.93164,4.67373l-7.86514,3.14522v10.2209l7.86934,3.14522c0.50609,1.62575 1.15162,3.18431 1.93164,4.66953l-3.33838,7.78535l7.22686,7.22686l7.78115,-3.33418c1.48627,0.78157 3.04667,1.42635 4.67373,1.93164l3.14522,7.86514h10.2209l3.14522,-7.86934c1.62575,-0.50609 3.18431,-1.15162 4.66953,-1.93164l7.78535,3.33838l7.22686,-7.22686l-3.33418,-7.78115c0.78157,-1.48627 1.42635,-3.04667 1.93164,-4.67373l7.86514,-3.14522v-1.45713v-8.76377l-7.86934,-3.14522c-0.50609,-1.62575 -1.15162,-3.18431 -1.93164,-4.66953l3.33838,-7.78535l-7.22686,-7.22686l-7.78115,3.33418c-1.48627,-0.78157 -3.04667,-1.42635 -4.67373,-1.93164l-3.14522,-7.86514zM111.74961,19.35h4.40078l2.79248,6.9833l1.0498,0.27715c2.07649,0.54624 4.03247,1.35967 5.84111,2.41455l0.93643,0.5459l6.90771,-2.96045l3.11162,3.11162l-2.96045,6.90771l0.5417,0.93643c1.05341,1.8095 1.8702,3.76753 2.41875,5.84531l0.27715,1.04561l6.9833,2.79248v4.40078l-6.9833,2.79248l-0.27715,1.0498c-0.54624,2.07649 -1.35967,4.03247 -2.41455,5.84111l-0.5459,0.93643l2.96045,6.90771l-3.11162,3.11162l-6.90771,-2.96045l-0.93643,0.5417c-1.8095,1.05341 -3.76753,1.8702 -5.84531,2.41875l-1.04561,0.27715l-2.79248,6.9833h-4.40078l-2.79248,-6.9833l-1.0498,-0.27715c-2.07649,-0.54624 -4.03247,-1.35967 -5.84111,-2.41455l-0.93643,-0.5459l-6.90771,2.96045l-3.11162,-3.11162l2.96045,-6.90771l-0.5417,-0.93643c-1.05341,-1.8095 -1.8702,-3.76753 -2.41875,-5.84531l-0.27715,-1.04561l-6.9833,-2.79248v-4.40078l6.9833,-2.79248l0.27715,-1.0498c0.54624,-2.07649 1.35967,-4.03247 2.41455,-5.84111l0.5459,-0.93643l-2.96045,-6.90771l3.11162,-3.11162l6.90771,2.96045l0.93643,-0.5459c1.80764,-1.05429 3.7663,-1.86568 5.84531,-2.41455l1.04561,-0.27715zM73.1,25.8c-1.18741,0 -2.15,0.96259 -2.15,2.15c0,1.18741 0.96259,2.15 2.15,2.15c1.18741,0 2.15,-0.96259 2.15,-2.15c0,-1.18741 -0.96259,-2.15 -2.15,-2.15zM63.63916,27.04297c-1.18741,0 -2.15,0.96259 -2.15,2.15c0,1.18741 0.96259,2.15 2.15,2.15c1.18741,0 2.15,-0.96259 2.15,-2.15c0,-1.18741 -0.96259,-2.15 -2.15,-2.15zM54.8208,30.69629c-1.18741,0 -2.15,0.96259 -2.15,2.15c0,1.18741 0.96259,2.15 2.15,2.15c1.18741,0 2.15,-0.96259 2.15,-2.15c0,-1.18741 -0.96259,-2.15 -2.15,-2.15zM47.25381,36.50381c-1.18741,0 -2.15,0.96259 -2.15,2.15c0,1.18741 0.96259,2.15 2.15,2.15c1.18741,0 2.15,-0.96259 2.15,-2.15c0,-1.18741 -0.96259,-2.15 -2.15,-2.15zM113.95,36.55c-7.09901,0 -12.9,5.80099 -12.9,12.9c0,7.09901 5.80099,12.9 12.9,12.9c7.09901,0 12.9,-5.80099 12.9,-12.9c0,-7.09901 -5.80099,-12.9 -12.9,-12.9zM113.95,40.85c4.77512,0 8.6,3.82488 8.6,8.6c0,4.77512 -3.82488,8.6 -8.6,8.6c-4.77512,0 -8.6,-3.82488 -8.6,-8.6c0,-4.77512 3.82488,-8.6 8.6,-8.6zM41.44629,44.075c-1.18741,0 -2.15,0.96259 -2.15,2.15c0,1.18741 0.96259,2.15 2.15,2.15c1.18741,0 2.15,-0.96259 2.15,-2.15c0,-1.18741 -0.96259,-2.15 -2.15,-2.15zM37.79297,52.88916c-1.18741,0 -2.15,0.96259 -2.15,2.15c0,1.18741 0.96259,2.15 2.15,2.15c1.18741,0 2.15,-0.96259 2.15,-2.15c0,-1.18741 -0.96259,-2.15 -2.15,-2.15zM36.55,62.35c-1.18741,0 -2.15,0.96259 -2.15,2.15c0,1.18741 0.96259,2.15 2.15,2.15c1.18741,0 2.15,-0.96259 2.15,-2.15c0,-1.18741 -0.96259,-2.15 -2.15,-2.15zM37.79297,71.81084c-1.18741,0 -2.15,0.96259 -2.15,2.15c0,1.18741 0.96259,2.15 2.15,2.15c1.18741,0 2.15,-0.96259 2.15,-2.15c0,-1.18741 -0.96259,-2.15 -2.15,-2.15zM41.44629,80.6208c-1.18741,0 -2.15,0.96259 -2.15,2.15c0,1.18741 0.96259,2.15 2.15,2.15c1.18741,0 2.15,-0.96259 2.15,-2.15c0,-1.18741 -0.96259,-2.15 -2.15,-2.15zM47.25381,88.19619c-1.18741,0 -2.15,0.96259 -2.15,2.15c0,1.18741 0.96259,2.15 2.15,2.15c1.18741,0 2.15,-0.96259 2.15,-2.15c0,-1.18741 -0.96259,-2.15 -2.15,-2.15zM53.75,122.55h38.7v4.3h-25.8v4.3h25.8v4.3h-25.8v4.3h25.40947c-0.88062,2.50921 -3.23255,4.3 -6.05947,4.3h-25.8c-2.82693,0 -5.17885,-1.79079 -6.05947,-4.3h8.20947v-4.3h-8.6v-4.3h8.6v-4.3h-8.6zM67.04053,148.35h12.11894c-0.88062,2.50921 -3.23255,4.3 -6.05947,4.3c-2.82693,0 -5.17885,-1.79079 -6.05947,-4.3z"></path></g></g></svg>