<svg xmlns="http://www.w3.org/2000/svg" x="0px" y="0px"
width="100" height="100"
viewBox="0 0 172 172"
style=" fill:#000000;"><g fill="none" fill-rule="nonzero" stroke="none" stroke-width="1" stroke-linecap="butt" stroke-linejoin="miter" stroke-miterlimit="10" stroke-dasharray="" stroke-dashoffset="0" font-family="none" font-weight="none" font-size="none" text-anchor="none" style="mix-blend-mode: normal"><path d="M0,172v-172h172v172z" fill="none"></path><g fill="#181818"><path d="M86.86,20.71391c-1.26264,-0.00018 -2.52563,0.62942 -3.14102,1.88461l-19.09133,39.05609l-42.72117,6.26859c-2.74106,0.40311 -3.91966,3.99076 -1.94508,5.93602c0.00112,0.00112 0.00224,0.00224 0.00336,0.00336l30.93648,30.44602l-7.29992,42.96977c-0.46981,2.75034 2.6211,4.97415 5.08274,3.66844c0.00112,0 0.00224,0 0.00336,0l38.17258,-20.26375l38.17258,20.26375c0.00112,0 0.00224,0 0.00336,0c2.46109,1.30541 5.54902,-0.91626 5.08274,-3.66508l-7.29992,-42.97313l30.93648,-30.44602c1.98004,-1.94416 0.80027,-5.53557 -1.94172,-5.93937c-0.00112,0 -0.00224,0 -0.00336,0l-42.72117,-6.26859l-19.08797,-39.05609c-0.61421,-1.25611 -1.87838,-1.88443 -3.14102,-1.88461zM86.86,24.00609c0.00794,0.00023 0.01616,0.03413 0.05039,0.10414l19.48773,39.86906c0.24862,0.50966 0.73244,0.86405 1.29336,0.94734l43.61813,6.39961c0.15449,0.02276 0.14163,-0.02545 0.03359,0.08062c0,0.00112 0,0.00224 0,0.00336l-31.57812,31.07758c-0.39921,0.3943 -0.58101,0.95853 -0.48711,1.51172l7.44773,43.85664c0.02489,0.14675 0.04869,0.12279 -0.07727,0.05375l-38.98219,-20.69375c-0.50421,-0.26753 -1.10829,-0.26753 -1.6125,0l-38.97883,20.69375c-0.13901,0.07374 -0.10618,0.0992 -0.08062,-0.05039c0,-0.00112 0,-0.00224 0,-0.00336l7.44773,-43.85664c0.0939,-0.55319 -0.0879,-1.11742 -0.48711,-1.51172l-31.57812,-31.07758c-0.10927,-0.10765 -0.12288,-0.06162 0.03023,-0.08398l43.61812,-6.39961c0.56216,-0.08226 1.04745,-0.43679 1.29672,-0.94734l19.48773,-39.86906c0.03477,-0.07092 0.04245,-0.10437 0.05039,-0.10414zM86.81297,38.80414c-0.31399,0.01952 -0.59227,0.2089 -0.72562,0.49383l-15.14742,30.99023l-34.07414,4.99875c-0.32361,0.04658 -0.59283,0.27261 -0.69472,0.58327c-0.10189,0.31066 -0.01884,0.65223 0.21433,0.88142l24.66789,24.28156l-5.80164,34.15141c-0.05444,0.32268 0.07894,0.6483 0.34412,0.84005c0.26517,0.19175 0.61619,0.21641 0.90557,0.06362l30.35867,-16.11156l30.35867,16.11156c0.28938,0.15279 0.6404,0.12813 0.90557,-0.06362c0.26517,-0.19175 0.39856,-0.51737 0.34412,-0.84005l-5.80164,-34.15141l24.66789,-24.28156c0.3386,-0.33396 0.34236,-0.87918 0.0084,-1.21777c-0.33396,-0.3386 -0.87918,-0.34236 -1.21777,-0.0084l-24.98367,24.59398c-0.20128,0.19756 -0.29291,0.48125 -0.24524,0.75922l5.58328,32.87148l-29.21648,-15.50688c-0.25211,-0.13377 -0.55414,-0.13377 -0.80625,0l-29.21648,15.50688l5.58328,-32.87148c0.04768,-0.27797 -0.04396,-0.56166 -0.24524,-0.75922l-23.75078,-23.38125l32.81102,-4.81398c0.27983,-0.04216 0.52102,-0.21928 0.645,-0.47367l15.34898,-31.39672c0.14058,-0.27518 0.12273,-0.60462 -0.04674,-0.86301c-0.16948,-0.25838 -0.46454,-0.406 -0.77294,-0.38668zM91.36156,48.14992c-0.2871,0.02071 -0.54481,0.18368 -0.68661,0.43418c-0.14179,0.2505 -0.14887,0.55533 -0.01886,0.81215c1.7578,3.59472 2.14371,4.38766 4.20258,8.6c0.12666,0.28896 0.40136,0.48539 0.71575,0.51179c0.31439,0.02641 0.61801,-0.12144 0.79109,-0.38523c0.17308,-0.26379 0.18785,-0.60117 0.03847,-0.87906c-2.05881,-4.21222 -2.4447,-5.00512 -4.20258,-8.6c-0.15074,-0.32258 -0.48466,-0.51893 -0.83984,-0.49383zM98.08703,61.90992c-0.2871,0.02071 -0.54481,0.18368 -0.68661,0.43418c-0.14179,0.2505 -0.14887,0.55533 -0.01886,0.81215c0.32692,0.66934 0.56118,1.15399 0.83984,1.72336c0.13561,0.27607 0.4082,0.45882 0.71509,0.4794c0.30689,0.02058 0.60144,-0.12414 0.77269,-0.37963c0.17125,-0.25549 0.19318,-0.58294 0.05753,-0.85899c-0.27862,-0.56927 -0.51317,-1.04782 -0.83984,-1.71664c-0.15074,-0.32258 -0.48466,-0.51893 -0.83984,-0.49383z"></path></g></g></svg>