<svg xmlns="http://www.w3.org/2000/svg" x="0px" y="0px"
width="100" height="100"
viewBox="0 0 172 172"
style=" fill:#000000;"><defs><linearGradient x1="102.125" y1="68.53125" x2="102.125" y2="87.37062" gradientUnits="userSpaceOnUse" id="color-1_49407_gr1"><stop offset="0" stop-color="#2cdbd0"></stop><stop offset="1" stop-color="#2cdbd0"></stop></linearGradient><linearGradient x1="86" y1="13.88631" x2="86" y2="161.7445" gradientUnits="userSpaceOnUse" id="color-2_49407_gr2"><stop offset="0" stop-color="#28b351"></stop><stop offset="1" stop-color="#28b351"></stop></linearGradient><linearGradient x1="102.125" y1="13.88631" x2="102.125" y2="161.7445" gradientUnits="userSpaceOnUse" id="color-3_49407_gr3"><stop offset="0" stop-color="#28b351"></stop><stop offset="1" stop-color="#28b351"></stop></linearGradient><linearGradient x1="49.71875" y1="13.88631" x2="49.71875" y2="161.7445" gradientUnits="userSpaceOnUse" id="color-4_49407_gr4"><stop offset="0" stop-color="#28b351"></stop><stop offset="1" stop-color="#28b351"></stop></linearGradient><linearGradient x1="49.71875" y1="13.88631" x2="49.71875" y2="161.7445" gradientUnits="userSpaceOnUse" id="color-5_49407_gr5"><stop offset="0" stop-color="#28b351"></stop><stop offset="1" stop-color="#28b351"></stop></linearGradient><linearGradient x1="49.71875" y1="13.88631" x2="49.71875" y2="161.7445" gradientUnits="userSpaceOnUse" id="color-6_49407_gr6"><stop offset="0" stop-color="#28b351"></stop><stop offset="1" stop-color="#28b351"></stop></linearGradient><linearGradient x1="49.71875" y1="13.88631" x2="49.71875" y2="161.7445" gradientUnits="userSpaceOnUse" id="color-7_49407_gr7"><stop offset="0" stop-color="#28b351"></stop><stop offset="1" stop-color="#28b351"></stop></linearGradient></defs><g fill="none" fill-rule="nonzero" stroke="none" stroke-width="1" stroke-linecap="butt" stroke-linejoin="miter" stroke-miterlimit="10" stroke-dasharray="" stroke-dashoffset="0" font-family="none" font-weight="none" font-size="none" text-anchor="none" style="mix-blend-mode: normal"><path d="M0,172v-172h172v172z" fill="none"></path><g><path d="M83.3125,72.5625v10.75c0,1.4835 1.204,2.6875 2.6875,2.6875h4.11725c0.79819,0 9.40625,-9.77712 9.40625,-9.77712c1.15025,-1.38137 3.30294,-1.26581 4.3,0.22844c0,0 9.0515,9.546 7.80181,9.546h6.62469c1.4835,0 2.6875,-1.204 2.6875,-2.6875v-10.75c0,-1.4835 -1.204,-2.6875 -2.6875,-2.6875h-32.25c-1.4835,0.00269 -2.6875,1.20669 -2.6875,2.69019z" fill="url(#color-1_49407_gr1)"></path><path d="M142.4375,16.125h-112.875c-4.44513,0 -8.0625,3.61737 -8.0625,8.0625v88.6875v2.6875v10.75c0,4.44512 3.61737,8.0625 8.0625,8.0625h45.6875v-5.375h-45.6875c-1.4835,0 -2.6875,-1.204 -2.6875,-2.6875v-3.182c0.84388,0.301 1.73881,0.4945 2.6875,0.4945h45.6875v-5.375h-45.6875c-1.4835,0 -2.6875,-1.204 -2.6875,-2.6875v-2.6875v-69.875h118.25v61.8125v10.75c0,1.4835 -1.204,2.6875 -2.6875,2.6875h-13.4375v5.375h13.4375c0.94869,0 1.84363,-0.1935 2.6875,-0.4945v3.182c0,1.4835 -1.204,2.6875 -2.6875,2.6875h-13.4375v5.375h13.4375c4.44512,0 8.0625,-3.61738 8.0625,-8.0625v-10.75v-10.75v-80.625c0,-4.44513 -3.61737,-8.0625 -8.0625,-8.0625zM76.27663,21.5l8.0625,16.125h-12.80325l-8.0625,-16.125zM26.875,24.1875c0,-1.4835 1.204,-2.6875 2.6875,-2.6875h27.90162l8.0625,16.125h-38.65162zM90.34838,37.625l-8.0625,-16.125h60.15163c1.4835,0 2.6875,1.204 2.6875,2.6875v13.4375z" fill="url(#color-2_49407_gr2)"></path><path d="M129.12631,105.53275l-5.85337,-8.78275h3.03956c2.96431,0 5.375,-2.41069 5.375,-5.375v-26.875c0,-2.96431 -2.41069,-5.375 -5.375,-5.375h-48.375c-2.96431,0 -5.375,2.41069 -5.375,5.375v26.875c0,2.96431 2.41069,5.375 5.375,5.375h3.03956l-5.85337,8.78275c-1.89469,2.84337 -1.78988,6.58438 0.26069,9.3095l5.47444,7.30194c-0.13706,0.473 -0.23381,0.96213 -0.23381,1.48081v5.375c0,2.96431 2.41069,5.375 5.375,5.375v13.4375c0,4.44512 3.61738,8.0625 8.0625,8.0625h16.125c4.44512,0 8.0625,-3.61738 8.0625,-8.0625v-13.4375c2.96431,0 5.375,-2.41069 5.375,-5.375v-5.375c0,-0.51869 -0.09675,-1.00781 -0.23381,-1.48081l5.47175,-7.29656c2.05325,-2.7305 2.15806,-6.47419 0.26337,-9.31487zM77.9375,91.375v-26.875h48.375v26.875h-6.62469l-10.84944,-16.2755c-1.50231,-2.24944 -4.00975,-3.59319 -6.71337,-3.59319c-2.70363,0 -5.21106,1.34375 -6.71337,3.59319l-10.84944,16.2755zM104.8125,104.8125c0,1.4835 -1.204,2.6875 -2.6875,2.6875c-1.4835,0 -2.6875,-1.204 -2.6875,-2.6875c0,-1.4835 1.204,-2.6875 2.6875,-2.6875c1.4835,0 2.6875,1.204 2.6875,2.6875zM112.875,147.8125c0,1.4835 -1.204,2.6875 -2.6875,2.6875h-16.125c-1.4835,0 -2.6875,-1.204 -2.6875,-2.6875v-13.4375h21.5zM86,129v-5.375h32.25l0.00538,5.375zM124.56831,111.61725l-5.09012,6.78862c-0.39506,-0.09406 -0.80356,-0.15587 -1.22819,-0.15587h-32.25c-0.42463,0 -0.83312,0.06181 -1.22819,0.15587l-5.09281,-6.79131c-0.68263,-0.90569 -0.71756,-2.15269 -0.08331,-3.09869l19.84181,-29.76406v18.49538c-3.12287,1.11262 -5.375,4.06888 -5.375,7.568c0,4.44512 3.61738,8.0625 8.0625,8.0625c4.44512,0 8.0625,-3.61738 8.0625,-8.0625c0,-3.49912 -2.25213,-6.45538 -5.375,-7.568v-18.49537l19.84181,29.76137c0.63156,0.946 0.59662,2.193 -0.086,3.10406z" fill="url(#color-3_49407_gr3)"></path><path d="M37.625,59.125h24.1875v5.375h-24.1875z" fill="url(#color-4_49407_gr4)"></path><path d="M37.625,69.875h24.1875v5.375h-24.1875z" fill="url(#color-5_49407_gr5)"></path><path d="M37.625,80.625h24.1875v5.375h-24.1875z" fill="url(#color-6_49407_gr6)"></path><path d="M37.625,91.375h24.1875v5.375h-24.1875z" fill="url(#color-7_49407_gr7)"></path></g></g></svg>